G04 #@! TF.GenerationSoftware,KiCad,Pcbnew,(5.1.2)-1*
G04 #@! TF.CreationDate,2019-05-30T12:40:22+02:00*
G04 #@! TF.ProjectId,antennaControl,616e7465-6e6e-4614-936f-6e74726f6c2e,rev?*
G04 #@! TF.SameCoordinates,Original*
G04 #@! TF.FileFunction,Legend,Top*
G04 #@! TF.FilePolarity,Positive*
%FSLAX46Y46*%
G04 Gerber Fmt 4.6, Leading zero omitted, Abs format (unit mm)*
G04 Created by KiCad (PCBNEW (5.1.2)-1) date 2019-05-30 12:40:22*
%MOMM*%
%LPD*%
G04 APERTURE LIST*
%ADD10C,0.100000*%
%ADD11C,0.150000*%
%ADD12C,0.300000*%
%ADD13C,0.400000*%
%ADD14C,0.203200*%
%ADD15C,0.120000*%
%ADD16C,0.127000*%
%ADD17C,0.152400*%
G04 APERTURE END LIST*
D10*
D11*
X177002200Y-166007200D02*
X177002200Y-198007200D01*
X285002200Y-198007200D01*
X285002200Y-166007200D01*
X177002200Y-166007200D01*
D10*
D11*
X10000000Y-10000000D02*
X10000000Y-200007200D01*
X287002200Y-200007200D01*
X287002200Y-10000000D01*
X10000000Y-10000000D01*
D10*
D11*
X12000000Y-12000000D02*
X12000000Y-198007200D01*
X285002200Y-198007200D01*
X285002200Y-12000000D01*
X12000000Y-12000000D01*
D10*
D11*
X60000000Y-12000000D02*
X60000000Y-10000000D01*
D10*
D11*
X110000000Y-12000000D02*
X110000000Y-10000000D01*
D10*
D11*
X160000000Y-12000000D02*
X160000000Y-10000000D01*
D10*
D11*
X210000000Y-12000000D02*
X210000000Y-10000000D01*
D10*
D11*
X260000000Y-12000000D02*
X260000000Y-10000000D01*
D10*
D11*
X36065476Y-11588095D02*
X35322619Y-11588095D01*
X35694047Y-11588095D02*
X35694047Y-10288095D01*
X35570238Y-10473809D01*
X35446428Y-10597619D01*
X35322619Y-10659523D01*
D10*
D11*
X85322619Y-10411904D02*
X85384523Y-10350000D01*
X85508333Y-10288095D01*
X85817857Y-10288095D01*
X85941666Y-10350000D01*
X86003571Y-10411904D01*
X86065476Y-10535714D01*
X86065476Y-10659523D01*
X86003571Y-10845238D01*
X85260714Y-11588095D01*
X86065476Y-11588095D01*
D10*
D11*
X135260714Y-10288095D02*
X136065476Y-10288095D01*
X135632142Y-10783333D01*
X135817857Y-10783333D01*
X135941666Y-10845238D01*
X136003571Y-10907142D01*
X136065476Y-11030952D01*
X136065476Y-11340476D01*
X136003571Y-11464285D01*
X135941666Y-11526190D01*
X135817857Y-11588095D01*
X135446428Y-11588095D01*
X135322619Y-11526190D01*
X135260714Y-11464285D01*
D10*
D11*
X185941666Y-10721428D02*
X185941666Y-11588095D01*
X185632142Y-10226190D02*
X185322619Y-11154761D01*
X186127380Y-11154761D01*
D10*
D11*
X236003571Y-10288095D02*
X235384523Y-10288095D01*
X235322619Y-10907142D01*
X235384523Y-10845238D01*
X235508333Y-10783333D01*
X235817857Y-10783333D01*
X235941666Y-10845238D01*
X236003571Y-10907142D01*
X236065476Y-11030952D01*
X236065476Y-11340476D01*
X236003571Y-11464285D01*
X235941666Y-11526190D01*
X235817857Y-11588095D01*
X235508333Y-11588095D01*
X235384523Y-11526190D01*
X235322619Y-11464285D01*
D10*
D11*
X285941666Y-10288095D02*
X285694047Y-10288095D01*
X285570238Y-10350000D01*
X285508333Y-10411904D01*
X285384523Y-10597619D01*
X285322619Y-10845238D01*
X285322619Y-11340476D01*
X285384523Y-11464285D01*
X285446428Y-11526190D01*
X285570238Y-11588095D01*
X285817857Y-11588095D01*
X285941666Y-11526190D01*
X286003571Y-11464285D01*
X286065476Y-11340476D01*
X286065476Y-11030952D01*
X286003571Y-10907142D01*
X285941666Y-10845238D01*
X285817857Y-10783333D01*
X285570238Y-10783333D01*
X285446428Y-10845238D01*
X285384523Y-10907142D01*
X285322619Y-11030952D01*
D10*
D11*
X60000000Y-198007200D02*
X60000000Y-200007200D01*
D10*
D11*
X110000000Y-198007200D02*
X110000000Y-200007200D01*
D10*
D11*
X160000000Y-198007200D02*
X160000000Y-200007200D01*
D10*
D11*
X210000000Y-198007200D02*
X210000000Y-200007200D01*
D10*
D11*
X260000000Y-198007200D02*
X260000000Y-200007200D01*
D10*
D11*
X36065476Y-199595295D02*
X35322619Y-199595295D01*
X35694047Y-199595295D02*
X35694047Y-198295295D01*
X35570238Y-198481009D01*
X35446428Y-198604819D01*
X35322619Y-198666723D01*
D10*
D11*
X85322619Y-198419104D02*
X85384523Y-198357200D01*
X85508333Y-198295295D01*
X85817857Y-198295295D01*
X85941666Y-198357200D01*
X86003571Y-198419104D01*
X86065476Y-198542914D01*
X86065476Y-198666723D01*
X86003571Y-198852438D01*
X85260714Y-199595295D01*
X86065476Y-199595295D01*
D10*
D11*
X135260714Y-198295295D02*
X136065476Y-198295295D01*
X135632142Y-198790533D01*
X135817857Y-198790533D01*
X135941666Y-198852438D01*
X136003571Y-198914342D01*
X136065476Y-199038152D01*
X136065476Y-199347676D01*
X136003571Y-199471485D01*
X135941666Y-199533390D01*
X135817857Y-199595295D01*
X135446428Y-199595295D01*
X135322619Y-199533390D01*
X135260714Y-199471485D01*
D10*
D11*
X185941666Y-198728628D02*
X185941666Y-199595295D01*
X185632142Y-198233390D02*
X185322619Y-199161961D01*
X186127380Y-199161961D01*
D10*
D11*
X236003571Y-198295295D02*
X235384523Y-198295295D01*
X235322619Y-198914342D01*
X235384523Y-198852438D01*
X235508333Y-198790533D01*
X235817857Y-198790533D01*
X235941666Y-198852438D01*
X236003571Y-198914342D01*
X236065476Y-199038152D01*
X236065476Y-199347676D01*
X236003571Y-199471485D01*
X235941666Y-199533390D01*
X235817857Y-199595295D01*
X235508333Y-199595295D01*
X235384523Y-199533390D01*
X235322619Y-199471485D01*
D10*
D11*
X285941666Y-198295295D02*
X285694047Y-198295295D01*
X285570238Y-198357200D01*
X285508333Y-198419104D01*
X285384523Y-198604819D01*
X285322619Y-198852438D01*
X285322619Y-199347676D01*
X285384523Y-199471485D01*
X285446428Y-199533390D01*
X285570238Y-199595295D01*
X285817857Y-199595295D01*
X285941666Y-199533390D01*
X286003571Y-199471485D01*
X286065476Y-199347676D01*
X286065476Y-199038152D01*
X286003571Y-198914342D01*
X285941666Y-198852438D01*
X285817857Y-198790533D01*
X285570238Y-198790533D01*
X285446428Y-198852438D01*
X285384523Y-198914342D01*
X285322619Y-199038152D01*
D10*
D11*
X10000000Y-60000000D02*
X12000000Y-60000000D01*
D10*
D11*
X10000000Y-110000000D02*
X12000000Y-110000000D01*
D10*
D11*
X10000000Y-160000000D02*
X12000000Y-160000000D01*
D10*
D11*
X10690476Y-35216666D02*
X11309523Y-35216666D01*
X10566666Y-35588095D02*
X11000000Y-34288095D01*
X11433333Y-35588095D01*
D10*
D11*
X11092857Y-84907142D02*
X11278571Y-84969047D01*
X11340476Y-85030952D01*
X11402380Y-85154761D01*
X11402380Y-85340476D01*
X11340476Y-85464285D01*
X11278571Y-85526190D01*
X11154761Y-85588095D01*
X10659523Y-85588095D01*
X10659523Y-84288095D01*
X11092857Y-84288095D01*
X11216666Y-84350000D01*
X11278571Y-84411904D01*
X11340476Y-84535714D01*
X11340476Y-84659523D01*
X11278571Y-84783333D01*
X11216666Y-84845238D01*
X11092857Y-84907142D01*
X10659523Y-84907142D01*
D10*
D11*
X11402380Y-135464285D02*
X11340476Y-135526190D01*
X11154761Y-135588095D01*
X11030952Y-135588095D01*
X10845238Y-135526190D01*
X10721428Y-135402380D01*
X10659523Y-135278571D01*
X10597619Y-135030952D01*
X10597619Y-134845238D01*
X10659523Y-134597619D01*
X10721428Y-134473809D01*
X10845238Y-134350000D01*
X11030952Y-134288095D01*
X11154761Y-134288095D01*
X11340476Y-134350000D01*
X11402380Y-134411904D01*
D10*
D11*
X10659523Y-185588095D02*
X10659523Y-184288095D01*
X10969047Y-184288095D01*
X11154761Y-184350000D01*
X11278571Y-184473809D01*
X11340476Y-184597619D01*
X11402380Y-184845238D01*
X11402380Y-185030952D01*
X11340476Y-185278571D01*
X11278571Y-185402380D01*
X11154761Y-185526190D01*
X10969047Y-185588095D01*
X10659523Y-185588095D01*
D10*
D11*
X287002200Y-60000000D02*
X285002200Y-60000000D01*
D10*
D11*
X287002200Y-110000000D02*
X285002200Y-110000000D01*
D10*
D11*
X287002200Y-160000000D02*
X285002200Y-160000000D01*
D10*
D11*
X285692676Y-35216666D02*
X286311723Y-35216666D01*
X285568866Y-35588095D02*
X286002200Y-34288095D01*
X286435533Y-35588095D01*
D10*
D11*
X286095057Y-84907142D02*
X286280771Y-84969047D01*
X286342676Y-85030952D01*
X286404580Y-85154761D01*
X286404580Y-85340476D01*
X286342676Y-85464285D01*
X286280771Y-85526190D01*
X286156961Y-85588095D01*
X285661723Y-85588095D01*
X285661723Y-84288095D01*
X286095057Y-84288095D01*
X286218866Y-84350000D01*
X286280771Y-84411904D01*
X286342676Y-84535714D01*
X286342676Y-84659523D01*
X286280771Y-84783333D01*
X286218866Y-84845238D01*
X286095057Y-84907142D01*
X285661723Y-84907142D01*
D10*
D11*
X286404580Y-135464285D02*
X286342676Y-135526190D01*
X286156961Y-135588095D01*
X286033152Y-135588095D01*
X285847438Y-135526190D01*
X285723628Y-135402380D01*
X285661723Y-135278571D01*
X285599819Y-135030952D01*
X285599819Y-134845238D01*
X285661723Y-134597619D01*
X285723628Y-134473809D01*
X285847438Y-134350000D01*
X286033152Y-134288095D01*
X286156961Y-134288095D01*
X286342676Y-134350000D01*
X286404580Y-134411904D01*
D10*
D11*
X285661723Y-185588095D02*
X285661723Y-184288095D01*
X285971247Y-184288095D01*
X286156961Y-184350000D01*
X286280771Y-184473809D01*
X286342676Y-184597619D01*
X286404580Y-184845238D01*
X286404580Y-185030952D01*
X286342676Y-185278571D01*
X286280771Y-185402380D01*
X286156961Y-185526190D01*
X285971247Y-185588095D01*
X285661723Y-185588095D01*
D10*
D11*
X200434342Y-193785771D02*
X200434342Y-192285771D01*
X200791485Y-192285771D01*
X201005771Y-192357200D01*
X201148628Y-192500057D01*
X201220057Y-192642914D01*
X201291485Y-192928628D01*
X201291485Y-193142914D01*
X201220057Y-193428628D01*
X201148628Y-193571485D01*
X201005771Y-193714342D01*
X200791485Y-193785771D01*
X200434342Y-193785771D01*
X202577200Y-193785771D02*
X202577200Y-193000057D01*
X202505771Y-192857200D01*
X202362914Y-192785771D01*
X202077200Y-192785771D01*
X201934342Y-192857200D01*
X202577200Y-193714342D02*
X202434342Y-193785771D01*
X202077200Y-193785771D01*
X201934342Y-193714342D01*
X201862914Y-193571485D01*
X201862914Y-193428628D01*
X201934342Y-193285771D01*
X202077200Y-193214342D01*
X202434342Y-193214342D01*
X202577200Y-193142914D01*
X203077200Y-192785771D02*
X203648628Y-192785771D01*
X203291485Y-192285771D02*
X203291485Y-193571485D01*
X203362914Y-193714342D01*
X203505771Y-193785771D01*
X203648628Y-193785771D01*
X204720057Y-193714342D02*
X204577200Y-193785771D01*
X204291485Y-193785771D01*
X204148628Y-193714342D01*
X204077200Y-193571485D01*
X204077200Y-193000057D01*
X204148628Y-192857200D01*
X204291485Y-192785771D01*
X204577200Y-192785771D01*
X204720057Y-192857200D01*
X204791485Y-193000057D01*
X204791485Y-193142914D01*
X204077200Y-193285771D01*
X205434342Y-193642914D02*
X205505771Y-193714342D01*
X205434342Y-193785771D01*
X205362914Y-193714342D01*
X205434342Y-193642914D01*
X205434342Y-193785771D01*
X205434342Y-192857200D02*
X205505771Y-192928628D01*
X205434342Y-193000057D01*
X205362914Y-192928628D01*
X205434342Y-192857200D01*
X205434342Y-193000057D01*
D10*
D11*
X177002200Y-194507200D02*
X285002200Y-194507200D01*
D10*
D11*
X178434342Y-196585771D02*
X178434342Y-195085771D01*
X179291485Y-196585771D02*
X178648628Y-195728628D01*
X179291485Y-195085771D02*
X178434342Y-195942914D01*
X179934342Y-196585771D02*
X179934342Y-195585771D01*
X179934342Y-195085771D02*
X179862914Y-195157200D01*
X179934342Y-195228628D01*
X180005771Y-195157200D01*
X179934342Y-195085771D01*
X179934342Y-195228628D01*
X181505771Y-196442914D02*
X181434342Y-196514342D01*
X181220057Y-196585771D01*
X181077200Y-196585771D01*
X180862914Y-196514342D01*
X180720057Y-196371485D01*
X180648628Y-196228628D01*
X180577200Y-195942914D01*
X180577200Y-195728628D01*
X180648628Y-195442914D01*
X180720057Y-195300057D01*
X180862914Y-195157200D01*
X181077200Y-195085771D01*
X181220057Y-195085771D01*
X181434342Y-195157200D01*
X181505771Y-195228628D01*
X182791485Y-196585771D02*
X182791485Y-195800057D01*
X182720057Y-195657200D01*
X182577200Y-195585771D01*
X182291485Y-195585771D01*
X182148628Y-195657200D01*
X182791485Y-196514342D02*
X182648628Y-196585771D01*
X182291485Y-196585771D01*
X182148628Y-196514342D01*
X182077200Y-196371485D01*
X182077200Y-196228628D01*
X182148628Y-196085771D01*
X182291485Y-196014342D01*
X182648628Y-196014342D01*
X182791485Y-195942914D01*
X184148628Y-196585771D02*
X184148628Y-195085771D01*
X184148628Y-196514342D02*
X184005771Y-196585771D01*
X183720057Y-196585771D01*
X183577200Y-196514342D01*
X183505771Y-196442914D01*
X183434342Y-196300057D01*
X183434342Y-195871485D01*
X183505771Y-195728628D01*
X183577200Y-195657200D01*
X183720057Y-195585771D01*
X184005771Y-195585771D01*
X184148628Y-195657200D01*
X186005771Y-195800057D02*
X186505771Y-195800057D01*
X186720057Y-196585771D02*
X186005771Y-196585771D01*
X186005771Y-195085771D01*
X186720057Y-195085771D01*
X187362914Y-196442914D02*
X187434342Y-196514342D01*
X187362914Y-196585771D01*
X187291485Y-196514342D01*
X187362914Y-196442914D01*
X187362914Y-196585771D01*
X188077200Y-196585771D02*
X188077200Y-195085771D01*
X188434342Y-195085771D01*
X188648628Y-195157200D01*
X188791485Y-195300057D01*
X188862914Y-195442914D01*
X188934342Y-195728628D01*
X188934342Y-195942914D01*
X188862914Y-196228628D01*
X188791485Y-196371485D01*
X188648628Y-196514342D01*
X188434342Y-196585771D01*
X188077200Y-196585771D01*
X189577200Y-196442914D02*
X189648628Y-196514342D01*
X189577200Y-196585771D01*
X189505771Y-196514342D01*
X189577200Y-196442914D01*
X189577200Y-196585771D01*
X190220057Y-196157200D02*
X190934342Y-196157200D01*
X190077200Y-196585771D02*
X190577200Y-195085771D01*
X191077200Y-196585771D01*
X191577200Y-196442914D02*
X191648628Y-196514342D01*
X191577200Y-196585771D01*
X191505771Y-196514342D01*
X191577200Y-196442914D01*
X191577200Y-196585771D01*
X194577200Y-196585771D02*
X194577200Y-195085771D01*
X194720057Y-196014342D02*
X195148628Y-196585771D01*
X195148628Y-195585771D02*
X194577200Y-196157200D01*
X195791485Y-196585771D02*
X195791485Y-195585771D01*
X195791485Y-195085771D02*
X195720057Y-195157200D01*
X195791485Y-195228628D01*
X195862914Y-195157200D01*
X195791485Y-195085771D01*
X195791485Y-195228628D01*
X197148628Y-196514342D02*
X197005771Y-196585771D01*
X196720057Y-196585771D01*
X196577200Y-196514342D01*
X196505771Y-196442914D01*
X196434342Y-196300057D01*
X196434342Y-195871485D01*
X196505771Y-195728628D01*
X196577200Y-195657200D01*
X196720057Y-195585771D01*
X197005771Y-195585771D01*
X197148628Y-195657200D01*
X198434342Y-196585771D02*
X198434342Y-195800057D01*
X198362914Y-195657200D01*
X198220057Y-195585771D01*
X197934342Y-195585771D01*
X197791485Y-195657200D01*
X198434342Y-196514342D02*
X198291485Y-196585771D01*
X197934342Y-196585771D01*
X197791485Y-196514342D01*
X197720057Y-196371485D01*
X197720057Y-196228628D01*
X197791485Y-196085771D01*
X197934342Y-196014342D01*
X198291485Y-196014342D01*
X198434342Y-195942914D01*
X199791485Y-196585771D02*
X199791485Y-195085771D01*
X199791485Y-196514342D02*
X199648628Y-196585771D01*
X199362914Y-196585771D01*
X199220057Y-196514342D01*
X199148628Y-196442914D01*
X199077200Y-196300057D01*
X199077200Y-195871485D01*
X199148628Y-195728628D01*
X199220057Y-195657200D01*
X199362914Y-195585771D01*
X199648628Y-195585771D01*
X199791485Y-195657200D01*
X202077200Y-197157200D02*
X202005771Y-197085771D01*
X201862914Y-196871485D01*
X201791485Y-196728628D01*
X201720057Y-196514342D01*
X201648628Y-196157200D01*
X201648628Y-195871485D01*
X201720057Y-195514342D01*
X201791485Y-195300057D01*
X201862914Y-195157200D01*
X202005771Y-194942914D01*
X202077200Y-194871485D01*
X203362914Y-195085771D02*
X202648628Y-195085771D01*
X202577200Y-195800057D01*
X202648628Y-195728628D01*
X202791485Y-195657200D01*
X203148628Y-195657200D01*
X203291485Y-195728628D01*
X203362914Y-195800057D01*
X203434342Y-195942914D01*
X203434342Y-196300057D01*
X203362914Y-196442914D01*
X203291485Y-196514342D01*
X203148628Y-196585771D01*
X202791485Y-196585771D01*
X202648628Y-196514342D01*
X202577200Y-196442914D01*
X204077200Y-196442914D02*
X204148628Y-196514342D01*
X204077200Y-196585771D01*
X204005771Y-196514342D01*
X204077200Y-196442914D01*
X204077200Y-196585771D01*
X205577200Y-196585771D02*
X204720057Y-196585771D01*
X205148628Y-196585771D02*
X205148628Y-195085771D01*
X205005771Y-195300057D01*
X204862914Y-195442914D01*
X204720057Y-195514342D01*
X206220057Y-196442914D02*
X206291485Y-196514342D01*
X206220057Y-196585771D01*
X206148628Y-196514342D01*
X206220057Y-196442914D01*
X206220057Y-196585771D01*
X206862914Y-195228628D02*
X206934342Y-195157200D01*
X207077200Y-195085771D01*
X207434342Y-195085771D01*
X207577200Y-195157200D01*
X207648628Y-195228628D01*
X207720057Y-195371485D01*
X207720057Y-195514342D01*
X207648628Y-195728628D01*
X206791485Y-196585771D01*
X207720057Y-196585771D01*
X208220057Y-197157200D02*
X208291485Y-197085771D01*
X208434342Y-196871485D01*
X208505771Y-196728628D01*
X208577200Y-196514342D01*
X208648628Y-196157200D01*
X208648628Y-195871485D01*
X208577200Y-195514342D01*
X208505771Y-195300057D01*
X208434342Y-195157200D01*
X208291485Y-194942914D01*
X208220057Y-194871485D01*
X209362914Y-196014342D02*
X210505771Y-196014342D01*
X212005771Y-196585771D02*
X211148628Y-196585771D01*
X211577200Y-196585771D02*
X211577200Y-195085771D01*
X211434342Y-195300057D01*
X211291485Y-195442914D01*
X211148628Y-195514342D01*
D10*
D11*
X177002200Y-191507200D02*
X285002200Y-191507200D01*
D10*
D12*
X264411485Y-193785771D02*
X263911485Y-193071485D01*
X263554342Y-193785771D02*
X263554342Y-192285771D01*
X264125771Y-192285771D01*
X264268628Y-192357200D01*
X264340057Y-192428628D01*
X264411485Y-192571485D01*
X264411485Y-192785771D01*
X264340057Y-192928628D01*
X264268628Y-193000057D01*
X264125771Y-193071485D01*
X263554342Y-193071485D01*
X265625771Y-193714342D02*
X265482914Y-193785771D01*
X265197200Y-193785771D01*
X265054342Y-193714342D01*
X264982914Y-193571485D01*
X264982914Y-193000057D01*
X265054342Y-192857200D01*
X265197200Y-192785771D01*
X265482914Y-192785771D01*
X265625771Y-192857200D01*
X265697200Y-193000057D01*
X265697200Y-193142914D01*
X264982914Y-193285771D01*
X266197200Y-192785771D02*
X266554342Y-193785771D01*
X266911485Y-192785771D01*
X267482914Y-193642914D02*
X267554342Y-193714342D01*
X267482914Y-193785771D01*
X267411485Y-193714342D01*
X267482914Y-193642914D01*
X267482914Y-193785771D01*
X267482914Y-192857200D02*
X267554342Y-192928628D01*
X267482914Y-193000057D01*
X267411485Y-192928628D01*
X267482914Y-192857200D01*
X267482914Y-193000057D01*
D10*
D11*
X178362914Y-193714342D02*
X178577200Y-193785771D01*
X178934342Y-193785771D01*
X179077200Y-193714342D01*
X179148628Y-193642914D01*
X179220057Y-193500057D01*
X179220057Y-193357200D01*
X179148628Y-193214342D01*
X179077200Y-193142914D01*
X178934342Y-193071485D01*
X178648628Y-193000057D01*
X178505771Y-192928628D01*
X178434342Y-192857200D01*
X178362914Y-192714342D01*
X178362914Y-192571485D01*
X178434342Y-192428628D01*
X178505771Y-192357200D01*
X178648628Y-192285771D01*
X179005771Y-192285771D01*
X179220057Y-192357200D01*
X179862914Y-193785771D02*
X179862914Y-192785771D01*
X179862914Y-192285771D02*
X179791485Y-192357200D01*
X179862914Y-192428628D01*
X179934342Y-192357200D01*
X179862914Y-192285771D01*
X179862914Y-192428628D01*
X180434342Y-192785771D02*
X181220057Y-192785771D01*
X180434342Y-193785771D01*
X181220057Y-193785771D01*
X182362914Y-193714342D02*
X182220057Y-193785771D01*
X181934342Y-193785771D01*
X181791485Y-193714342D01*
X181720057Y-193571485D01*
X181720057Y-193000057D01*
X181791485Y-192857200D01*
X181934342Y-192785771D01*
X182220057Y-192785771D01*
X182362914Y-192857200D01*
X182434342Y-193000057D01*
X182434342Y-193142914D01*
X181720057Y-193285771D01*
X183077200Y-193642914D02*
X183148628Y-193714342D01*
X183077200Y-193785771D01*
X183005771Y-193714342D01*
X183077200Y-193642914D01*
X183077200Y-193785771D01*
X183077200Y-192857200D02*
X183148628Y-192928628D01*
X183077200Y-193000057D01*
X183005771Y-192928628D01*
X183077200Y-192857200D01*
X183077200Y-193000057D01*
X184862914Y-193357200D02*
X185577200Y-193357200D01*
X184720057Y-193785771D02*
X185220057Y-192285771D01*
X185720057Y-193785771D01*
X186862914Y-192785771D02*
X186862914Y-193785771D01*
X186505771Y-192214342D02*
X186148628Y-193285771D01*
X187077200Y-193285771D01*
D10*
D11*
X263434342Y-196585771D02*
X263434342Y-195085771D01*
X264791485Y-196585771D02*
X264791485Y-195085771D01*
X264791485Y-196514342D02*
X264648628Y-196585771D01*
X264362914Y-196585771D01*
X264220057Y-196514342D01*
X264148628Y-196442914D01*
X264077200Y-196300057D01*
X264077200Y-195871485D01*
X264148628Y-195728628D01*
X264220057Y-195657200D01*
X264362914Y-195585771D01*
X264648628Y-195585771D01*
X264791485Y-195657200D01*
X265505771Y-196442914D02*
X265577200Y-196514342D01*
X265505771Y-196585771D01*
X265434342Y-196514342D01*
X265505771Y-196442914D01*
X265505771Y-196585771D01*
X265505771Y-195657200D02*
X265577200Y-195728628D01*
X265505771Y-195800057D01*
X265434342Y-195728628D01*
X265505771Y-195657200D01*
X265505771Y-195800057D01*
X268148628Y-196585771D02*
X267291485Y-196585771D01*
X267720057Y-196585771D02*
X267720057Y-195085771D01*
X267577200Y-195300057D01*
X267434342Y-195442914D01*
X267291485Y-195514342D01*
X269862914Y-195014342D02*
X268577200Y-196942914D01*
X271148628Y-196585771D02*
X270291485Y-196585771D01*
X270720057Y-196585771D02*
X270720057Y-195085771D01*
X270577200Y-195300057D01*
X270434342Y-195442914D01*
X270291485Y-195514342D01*
D10*
D11*
X177002200Y-187507200D02*
X285002200Y-187507200D01*
D10*
D13*
X178714580Y-188211961D02*
X179857438Y-188211961D01*
X179036009Y-190211961D02*
X179286009Y-188211961D01*
X180274104Y-190211961D02*
X180440771Y-188878628D01*
X180524104Y-188211961D02*
X180416961Y-188307200D01*
X180500295Y-188402438D01*
X180607438Y-188307200D01*
X180524104Y-188211961D01*
X180500295Y-188402438D01*
X181107438Y-188878628D02*
X181869342Y-188878628D01*
X181476485Y-188211961D02*
X181262200Y-189926247D01*
X181333628Y-190116723D01*
X181512200Y-190211961D01*
X181702676Y-190211961D01*
X182655057Y-190211961D02*
X182476485Y-190116723D01*
X182405057Y-189926247D01*
X182619342Y-188211961D01*
X184190771Y-190116723D02*
X183988390Y-190211961D01*
X183607438Y-190211961D01*
X183428866Y-190116723D01*
X183357438Y-189926247D01*
X183452676Y-189164342D01*
X183571723Y-188973866D01*
X183774104Y-188878628D01*
X184155057Y-188878628D01*
X184333628Y-188973866D01*
X184405057Y-189164342D01*
X184381247Y-189354819D01*
X183405057Y-189545295D01*
X185155057Y-190021485D02*
X185238390Y-190116723D01*
X185131247Y-190211961D01*
X185047914Y-190116723D01*
X185155057Y-190021485D01*
X185131247Y-190211961D01*
X185286009Y-188973866D02*
X185369342Y-189069104D01*
X185262200Y-189164342D01*
X185178866Y-189069104D01*
X185286009Y-188973866D01*
X185262200Y-189164342D01*
D10*
D11*
X178934342Y-185600057D02*
X178434342Y-185600057D01*
X178434342Y-186385771D02*
X178434342Y-184885771D01*
X179148628Y-184885771D01*
X179720057Y-186385771D02*
X179720057Y-185385771D01*
X179720057Y-184885771D02*
X179648628Y-184957200D01*
X179720057Y-185028628D01*
X179791485Y-184957200D01*
X179720057Y-184885771D01*
X179720057Y-185028628D01*
X180648628Y-186385771D02*
X180505771Y-186314342D01*
X180434342Y-186171485D01*
X180434342Y-184885771D01*
X181791485Y-186314342D02*
X181648628Y-186385771D01*
X181362914Y-186385771D01*
X181220057Y-186314342D01*
X181148628Y-186171485D01*
X181148628Y-185600057D01*
X181220057Y-185457200D01*
X181362914Y-185385771D01*
X181648628Y-185385771D01*
X181791485Y-185457200D01*
X181862914Y-185600057D01*
X181862914Y-185742914D01*
X181148628Y-185885771D01*
X182505771Y-186242914D02*
X182577200Y-186314342D01*
X182505771Y-186385771D01*
X182434342Y-186314342D01*
X182505771Y-186242914D01*
X182505771Y-186385771D01*
X182505771Y-185457200D02*
X182577200Y-185528628D01*
X182505771Y-185600057D01*
X182434342Y-185528628D01*
X182505771Y-185457200D01*
X182505771Y-185600057D01*
X185005771Y-186385771D02*
X185005771Y-185600057D01*
X184934342Y-185457200D01*
X184791485Y-185385771D01*
X184505771Y-185385771D01*
X184362914Y-185457200D01*
X185005771Y-186314342D02*
X184862914Y-186385771D01*
X184505771Y-186385771D01*
X184362914Y-186314342D01*
X184291485Y-186171485D01*
X184291485Y-186028628D01*
X184362914Y-185885771D01*
X184505771Y-185814342D01*
X184862914Y-185814342D01*
X185005771Y-185742914D01*
X185720057Y-185385771D02*
X185720057Y-186385771D01*
X185720057Y-185528628D02*
X185791485Y-185457200D01*
X185934342Y-185385771D01*
X186148628Y-185385771D01*
X186291485Y-185457200D01*
X186362914Y-185600057D01*
X186362914Y-186385771D01*
X186862914Y-185385771D02*
X187434342Y-185385771D01*
X187077200Y-184885771D02*
X187077200Y-186171485D01*
X187148628Y-186314342D01*
X187291485Y-186385771D01*
X187434342Y-186385771D01*
X188505771Y-186314342D02*
X188362914Y-186385771D01*
X188077200Y-186385771D01*
X187934342Y-186314342D01*
X187862914Y-186171485D01*
X187862914Y-185600057D01*
X187934342Y-185457200D01*
X188077200Y-185385771D01*
X188362914Y-185385771D01*
X188505771Y-185457200D01*
X188577200Y-185600057D01*
X188577200Y-185742914D01*
X187862914Y-185885771D01*
X189220057Y-185385771D02*
X189220057Y-186385771D01*
X189220057Y-185528628D02*
X189291485Y-185457200D01*
X189434342Y-185385771D01*
X189648628Y-185385771D01*
X189791485Y-185457200D01*
X189862914Y-185600057D01*
X189862914Y-186385771D01*
X190577200Y-185385771D02*
X190577200Y-186385771D01*
X190577200Y-185528628D02*
X190648628Y-185457200D01*
X190791485Y-185385771D01*
X191005771Y-185385771D01*
X191148628Y-185457200D01*
X191220057Y-185600057D01*
X191220057Y-186385771D01*
X192577200Y-186385771D02*
X192577200Y-185600057D01*
X192505771Y-185457200D01*
X192362914Y-185385771D01*
X192077200Y-185385771D01*
X191934342Y-185457200D01*
X192577200Y-186314342D02*
X192434342Y-186385771D01*
X192077200Y-186385771D01*
X191934342Y-186314342D01*
X191862914Y-186171485D01*
X191862914Y-186028628D01*
X191934342Y-185885771D01*
X192077200Y-185814342D01*
X192434342Y-185814342D01*
X192577200Y-185742914D01*
X194148628Y-186242914D02*
X194077200Y-186314342D01*
X193862914Y-186385771D01*
X193720057Y-186385771D01*
X193505771Y-186314342D01*
X193362914Y-186171485D01*
X193291485Y-186028628D01*
X193220057Y-185742914D01*
X193220057Y-185528628D01*
X193291485Y-185242914D01*
X193362914Y-185100057D01*
X193505771Y-184957200D01*
X193720057Y-184885771D01*
X193862914Y-184885771D01*
X194077200Y-184957200D01*
X194148628Y-185028628D01*
X195005771Y-186385771D02*
X194862914Y-186314342D01*
X194791485Y-186242914D01*
X194720057Y-186100057D01*
X194720057Y-185671485D01*
X194791485Y-185528628D01*
X194862914Y-185457200D01*
X195005771Y-185385771D01*
X195220057Y-185385771D01*
X195362914Y-185457200D01*
X195434342Y-185528628D01*
X195505771Y-185671485D01*
X195505771Y-186100057D01*
X195434342Y-186242914D01*
X195362914Y-186314342D01*
X195220057Y-186385771D01*
X195005771Y-186385771D01*
X196148628Y-185385771D02*
X196148628Y-186385771D01*
X196148628Y-185528628D02*
X196220057Y-185457200D01*
X196362914Y-185385771D01*
X196577200Y-185385771D01*
X196720057Y-185457200D01*
X196791485Y-185600057D01*
X196791485Y-186385771D01*
X197291485Y-185385771D02*
X197862914Y-185385771D01*
X197505771Y-184885771D02*
X197505771Y-186171485D01*
X197577200Y-186314342D01*
X197720057Y-186385771D01*
X197862914Y-186385771D01*
X198362914Y-186385771D02*
X198362914Y-185385771D01*
X198362914Y-185671485D02*
X198434342Y-185528628D01*
X198505771Y-185457200D01*
X198648628Y-185385771D01*
X198791485Y-185385771D01*
X199505771Y-186385771D02*
X199362914Y-186314342D01*
X199291485Y-186242914D01*
X199220057Y-186100057D01*
X199220057Y-185671485D01*
X199291485Y-185528628D01*
X199362914Y-185457200D01*
X199505771Y-185385771D01*
X199720057Y-185385771D01*
X199862914Y-185457200D01*
X199934342Y-185528628D01*
X200005771Y-185671485D01*
X200005771Y-186100057D01*
X199934342Y-186242914D01*
X199862914Y-186314342D01*
X199720057Y-186385771D01*
X199505771Y-186385771D01*
X200862914Y-186385771D02*
X200720057Y-186314342D01*
X200648628Y-186171485D01*
X200648628Y-184885771D01*
X201434342Y-186242914D02*
X201505771Y-186314342D01*
X201434342Y-186385771D01*
X201362914Y-186314342D01*
X201434342Y-186242914D01*
X201434342Y-186385771D01*
X202148628Y-186385771D02*
X202148628Y-184885771D01*
X202291485Y-185814342D02*
X202720057Y-186385771D01*
X202720057Y-185385771D02*
X202148628Y-185957200D01*
X203362914Y-186385771D02*
X203362914Y-185385771D01*
X203362914Y-184885771D02*
X203291485Y-184957200D01*
X203362914Y-185028628D01*
X203434342Y-184957200D01*
X203362914Y-184885771D01*
X203362914Y-185028628D01*
X204720057Y-186314342D02*
X204577200Y-186385771D01*
X204291485Y-186385771D01*
X204148628Y-186314342D01*
X204077200Y-186242914D01*
X204005771Y-186100057D01*
X204005771Y-185671485D01*
X204077200Y-185528628D01*
X204148628Y-185457200D01*
X204291485Y-185385771D01*
X204577200Y-185385771D01*
X204720057Y-185457200D01*
X206005771Y-186385771D02*
X206005771Y-185600057D01*
X205934342Y-185457200D01*
X205791485Y-185385771D01*
X205505771Y-185385771D01*
X205362914Y-185457200D01*
X206005771Y-186314342D02*
X205862914Y-186385771D01*
X205505771Y-186385771D01*
X205362914Y-186314342D01*
X205291485Y-186171485D01*
X205291485Y-186028628D01*
X205362914Y-185885771D01*
X205505771Y-185814342D01*
X205862914Y-185814342D01*
X206005771Y-185742914D01*
X207362914Y-186385771D02*
X207362914Y-184885771D01*
X207362914Y-186314342D02*
X207220057Y-186385771D01*
X206934342Y-186385771D01*
X206791485Y-186314342D01*
X206720057Y-186242914D01*
X206648628Y-186100057D01*
X206648628Y-185671485D01*
X206720057Y-185528628D01*
X206791485Y-185457200D01*
X206934342Y-185385771D01*
X207220057Y-185385771D01*
X207362914Y-185457200D01*
X207720057Y-186528628D02*
X208862914Y-186528628D01*
X209220057Y-185385771D02*
X209220057Y-186885771D01*
X209220057Y-185457200D02*
X209362914Y-185385771D01*
X209648628Y-185385771D01*
X209791485Y-185457200D01*
X209862914Y-185528628D01*
X209934342Y-185671485D01*
X209934342Y-186100057D01*
X209862914Y-186242914D01*
X209791485Y-186314342D01*
X209648628Y-186385771D01*
X209362914Y-186385771D01*
X209220057Y-186314342D01*
X211220057Y-186314342D02*
X211077200Y-186385771D01*
X210791485Y-186385771D01*
X210648628Y-186314342D01*
X210577200Y-186242914D01*
X210505771Y-186100057D01*
X210505771Y-185671485D01*
X210577200Y-185528628D01*
X210648628Y-185457200D01*
X210791485Y-185385771D01*
X211077200Y-185385771D01*
X211220057Y-185457200D01*
X211862914Y-186385771D02*
X211862914Y-184885771D01*
X211862914Y-185457200D02*
X212005771Y-185385771D01*
X212291485Y-185385771D01*
X212434342Y-185457200D01*
X212505771Y-185528628D01*
X212577200Y-185671485D01*
X212577200Y-186100057D01*
X212505771Y-186242914D01*
X212434342Y-186314342D01*
X212291485Y-186385771D01*
X212005771Y-186385771D01*
X211862914Y-186314342D01*
D10*
D11*
X177002200Y-181507200D02*
X285002200Y-181507200D01*
D10*
D11*
X178362914Y-183614342D02*
X178577200Y-183685771D01*
X178934342Y-183685771D01*
X179077200Y-183614342D01*
X179148628Y-183542914D01*
X179220057Y-183400057D01*
X179220057Y-183257200D01*
X179148628Y-183114342D01*
X179077200Y-183042914D01*
X178934342Y-182971485D01*
X178648628Y-182900057D01*
X178505771Y-182828628D01*
X178434342Y-182757200D01*
X178362914Y-182614342D01*
X178362914Y-182471485D01*
X178434342Y-182328628D01*
X178505771Y-182257200D01*
X178648628Y-182185771D01*
X179005771Y-182185771D01*
X179220057Y-182257200D01*
X179862914Y-183685771D02*
X179862914Y-182185771D01*
X180505771Y-183685771D02*
X180505771Y-182900057D01*
X180434342Y-182757200D01*
X180291485Y-182685771D01*
X180077200Y-182685771D01*
X179934342Y-182757200D01*
X179862914Y-182828628D01*
X181791485Y-183614342D02*
X181648628Y-183685771D01*
X181362914Y-183685771D01*
X181220057Y-183614342D01*
X181148628Y-183471485D01*
X181148628Y-182900057D01*
X181220057Y-182757200D01*
X181362914Y-182685771D01*
X181648628Y-182685771D01*
X181791485Y-182757200D01*
X181862914Y-182900057D01*
X181862914Y-183042914D01*
X181148628Y-183185771D01*
X183077200Y-183614342D02*
X182934342Y-183685771D01*
X182648628Y-183685771D01*
X182505771Y-183614342D01*
X182434342Y-183471485D01*
X182434342Y-182900057D01*
X182505771Y-182757200D01*
X182648628Y-182685771D01*
X182934342Y-182685771D01*
X183077200Y-182757200D01*
X183148628Y-182900057D01*
X183148628Y-183042914D01*
X182434342Y-183185771D01*
X183577200Y-182685771D02*
X184148628Y-182685771D01*
X183791485Y-182185771D02*
X183791485Y-183471485D01*
X183862914Y-183614342D01*
X184005771Y-183685771D01*
X184148628Y-183685771D01*
X184648628Y-183542914D02*
X184720057Y-183614342D01*
X184648628Y-183685771D01*
X184577200Y-183614342D01*
X184648628Y-183542914D01*
X184648628Y-183685771D01*
X184648628Y-182757200D02*
X184720057Y-182828628D01*
X184648628Y-182900057D01*
X184577200Y-182828628D01*
X184648628Y-182757200D01*
X184648628Y-182900057D01*
D10*
D11*
X197002200Y-191507200D02*
X197002200Y-194507200D01*
D10*
D11*
X261002200Y-191507200D02*
X261002200Y-198007200D01*
X130119500Y-105608357D02*
X130071880Y-105703595D01*
X130071880Y-105846452D01*
X130119500Y-105989309D01*
X130214738Y-106084547D01*
X130309976Y-106132166D01*
X130500452Y-106179785D01*
X130643309Y-106179785D01*
X130833785Y-106132166D01*
X130929023Y-106084547D01*
X131024261Y-105989309D01*
X131071880Y-105846452D01*
X131071880Y-105751214D01*
X131024261Y-105608357D01*
X130976642Y-105560738D01*
X130643309Y-105560738D01*
X130643309Y-105751214D01*
X130405214Y-105132166D02*
X131071880Y-105132166D01*
X130500452Y-105132166D02*
X130452833Y-105084547D01*
X130405214Y-104989309D01*
X130405214Y-104846452D01*
X130452833Y-104751214D01*
X130548071Y-104703595D01*
X131071880Y-104703595D01*
X131071880Y-103798833D02*
X130071880Y-103798833D01*
X131024261Y-103798833D02*
X131071880Y-103894071D01*
X131071880Y-104084547D01*
X131024261Y-104179785D01*
X130976642Y-104227404D01*
X130881404Y-104275023D01*
X130595690Y-104275023D01*
X130500452Y-104227404D01*
X130452833Y-104179785D01*
X130405214Y-104084547D01*
X130405214Y-103894071D01*
X130452833Y-103798833D01*
X128468380Y-115347785D02*
X128468380Y-115919214D01*
X128468380Y-115633500D02*
X127468380Y-115633500D01*
X127611238Y-115728738D01*
X127706476Y-115823976D01*
X127754095Y-115919214D01*
X176450666Y-115657380D02*
X177069714Y-115657380D01*
X176736380Y-116038333D01*
X176879238Y-116038333D01*
X176974476Y-116085952D01*
X177022095Y-116133571D01*
X177069714Y-116228809D01*
X177069714Y-116466904D01*
X177022095Y-116562142D01*
X176974476Y-116609761D01*
X176879238Y-116657380D01*
X176593523Y-116657380D01*
X176498285Y-116609761D01*
X176450666Y-116562142D01*
X176434785Y-113085619D02*
X176482404Y-113038000D01*
X176577642Y-112990380D01*
X176815738Y-112990380D01*
X176910976Y-113038000D01*
X176958595Y-113085619D01*
X177006214Y-113180857D01*
X177006214Y-113276095D01*
X176958595Y-113418952D01*
X176387166Y-113990380D01*
X177006214Y-113990380D01*
X177069714Y-111577380D02*
X176498285Y-111577380D01*
X176784000Y-111577380D02*
X176784000Y-110577380D01*
X176688761Y-110720238D01*
X176593523Y-110815476D01*
X176498285Y-110863095D01*
X176077619Y-94638714D02*
X176030000Y-94591095D01*
X175982380Y-94495857D01*
X175982380Y-94257761D01*
X176030000Y-94162523D01*
X176077619Y-94114904D01*
X176172857Y-94067285D01*
X176268095Y-94067285D01*
X176410952Y-94114904D01*
X176982380Y-94686333D01*
X176982380Y-94067285D01*
X176458571Y-93305380D02*
X176506190Y-93162523D01*
X176553809Y-93114904D01*
X176649047Y-93067285D01*
X176791904Y-93067285D01*
X176887142Y-93114904D01*
X176934761Y-93162523D01*
X176982380Y-93257761D01*
X176982380Y-93638714D01*
X175982380Y-93638714D01*
X175982380Y-93305380D01*
X176030000Y-93210142D01*
X176077619Y-93162523D01*
X176172857Y-93114904D01*
X176268095Y-93114904D01*
X176363333Y-93162523D01*
X176410952Y-93210142D01*
X176458571Y-93305380D01*
X176458571Y-93638714D01*
X176918880Y-104798785D02*
X176918880Y-105370214D01*
X176918880Y-105084500D02*
X175918880Y-105084500D01*
X176061738Y-105179738D01*
X176156976Y-105274976D01*
X176204595Y-105370214D01*
X176395071Y-104036880D02*
X176442690Y-103894023D01*
X176490309Y-103846404D01*
X176585547Y-103798785D01*
X176728404Y-103798785D01*
X176823642Y-103846404D01*
X176871261Y-103894023D01*
X176918880Y-103989261D01*
X176918880Y-104370214D01*
X175918880Y-104370214D01*
X175918880Y-104036880D01*
X175966500Y-103941642D01*
X176014119Y-103894023D01*
X176109357Y-103846404D01*
X176204595Y-103846404D01*
X176299833Y-103894023D01*
X176347452Y-103941642D01*
X176395071Y-104036880D01*
X176395071Y-104370214D01*
X176014119Y-98377285D02*
X175966500Y-98329666D01*
X175918880Y-98234428D01*
X175918880Y-97996333D01*
X175966500Y-97901095D01*
X176014119Y-97853476D01*
X176109357Y-97805857D01*
X176204595Y-97805857D01*
X176347452Y-97853476D01*
X176918880Y-98424904D01*
X176918880Y-97805857D01*
X176633166Y-97424904D02*
X176633166Y-96948714D01*
X176918880Y-97520142D02*
X175918880Y-97186809D01*
X176918880Y-96853476D01*
X176918880Y-101107857D02*
X176918880Y-101679285D01*
X176918880Y-101393571D02*
X175918880Y-101393571D01*
X176061738Y-101488809D01*
X176156976Y-101584047D01*
X176204595Y-101679285D01*
X176633166Y-100726904D02*
X176633166Y-100250714D01*
X176918880Y-100822142D02*
X175918880Y-100488809D01*
X176918880Y-100155476D01*
X176220500Y-84145357D02*
X176172880Y-84240595D01*
X176172880Y-84383452D01*
X176220500Y-84526309D01*
X176315738Y-84621547D01*
X176410976Y-84669166D01*
X176601452Y-84716785D01*
X176744309Y-84716785D01*
X176934785Y-84669166D01*
X177030023Y-84621547D01*
X177125261Y-84526309D01*
X177172880Y-84383452D01*
X177172880Y-84288214D01*
X177125261Y-84145357D01*
X177077642Y-84097738D01*
X176744309Y-84097738D01*
X176744309Y-84288214D01*
X176506214Y-83669166D02*
X177172880Y-83669166D01*
X176601452Y-83669166D02*
X176553833Y-83621547D01*
X176506214Y-83526309D01*
X176506214Y-83383452D01*
X176553833Y-83288214D01*
X176649071Y-83240595D01*
X177172880Y-83240595D01*
X177172880Y-82335833D02*
X176172880Y-82335833D01*
X177125261Y-82335833D02*
X177172880Y-82431071D01*
X177172880Y-82621547D01*
X177125261Y-82716785D01*
X177077642Y-82764404D01*
X176982404Y-82812023D01*
X176696690Y-82812023D01*
X176601452Y-82764404D01*
X176553833Y-82716785D01*
X176506214Y-82621547D01*
X176506214Y-82431071D01*
X176553833Y-82335833D01*
X179482952Y-89304880D02*
X179816285Y-90304880D01*
X180149619Y-89304880D01*
X180482952Y-90304880D02*
X180482952Y-89638214D01*
X180482952Y-89828690D02*
X180530571Y-89733452D01*
X180578190Y-89685833D01*
X180673428Y-89638214D01*
X180768666Y-89638214D01*
X181530571Y-90304880D02*
X181530571Y-89781071D01*
X181482952Y-89685833D01*
X181387714Y-89638214D01*
X181197238Y-89638214D01*
X181102000Y-89685833D01*
X181530571Y-90257261D02*
X181435333Y-90304880D01*
X181197238Y-90304880D01*
X181102000Y-90257261D01*
X181054380Y-90162023D01*
X181054380Y-90066785D01*
X181102000Y-89971547D01*
X181197238Y-89923928D01*
X181435333Y-89923928D01*
X181530571Y-89876309D01*
X181911523Y-89638214D02*
X182102000Y-90304880D01*
X182292476Y-89828690D01*
X182482952Y-90304880D01*
X182673428Y-89638214D01*
X179236904Y-76604880D02*
X179570238Y-77604880D01*
X179903571Y-76604880D01*
X180236904Y-77604880D02*
X180236904Y-76938214D01*
X180236904Y-77033452D02*
X180284523Y-76985833D01*
X180379761Y-76938214D01*
X180522619Y-76938214D01*
X180617857Y-76985833D01*
X180665476Y-77081071D01*
X180665476Y-77604880D01*
X180665476Y-77081071D02*
X180713095Y-76985833D01*
X180808333Y-76938214D01*
X180951190Y-76938214D01*
X181046428Y-76985833D01*
X181094047Y-77081071D01*
X181094047Y-77604880D01*
X181713095Y-77604880D02*
X181617857Y-77557261D01*
X181570238Y-77509642D01*
X181522619Y-77414404D01*
X181522619Y-77128690D01*
X181570238Y-77033452D01*
X181617857Y-76985833D01*
X181713095Y-76938214D01*
X181855952Y-76938214D01*
X181951190Y-76985833D01*
X181998809Y-77033452D01*
X182046428Y-77128690D01*
X182046428Y-77414404D01*
X181998809Y-77509642D01*
X181951190Y-77557261D01*
X181855952Y-77604880D01*
X181713095Y-77604880D01*
X182332142Y-76938214D02*
X182713095Y-76938214D01*
X182475000Y-76604880D02*
X182475000Y-77462023D01*
X182522619Y-77557261D01*
X182617857Y-77604880D01*
X182713095Y-77604880D01*
X160893166Y-115530380D02*
X161512214Y-115530380D01*
X161178880Y-115911333D01*
X161321738Y-115911333D01*
X161416976Y-115958952D01*
X161464595Y-116006571D01*
X161512214Y-116101809D01*
X161512214Y-116339904D01*
X161464595Y-116435142D01*
X161416976Y-116482761D01*
X161321738Y-116530380D01*
X161036023Y-116530380D01*
X160940785Y-116482761D01*
X160893166Y-116435142D01*
X168624285Y-115943119D02*
X168671904Y-115895500D01*
X168767142Y-115847880D01*
X169005238Y-115847880D01*
X169100476Y-115895500D01*
X169148095Y-115943119D01*
X169195714Y-116038357D01*
X169195714Y-116133595D01*
X169148095Y-116276452D01*
X168576666Y-116847880D01*
X169195714Y-116847880D01*
X169036976Y-113450714D02*
X169036976Y-114117380D01*
X168798880Y-113069761D02*
X168560785Y-113784047D01*
X169179833Y-113784047D01*
X168719523Y-111450380D02*
X168910000Y-111450380D01*
X169005238Y-111402761D01*
X169052857Y-111355142D01*
X169148095Y-111212285D01*
X169195714Y-111021809D01*
X169195714Y-110640857D01*
X169148095Y-110545619D01*
X169100476Y-110498000D01*
X169005238Y-110450380D01*
X168814761Y-110450380D01*
X168719523Y-110498000D01*
X168671904Y-110545619D01*
X168624285Y-110640857D01*
X168624285Y-110878952D01*
X168671904Y-110974190D01*
X168719523Y-111021809D01*
X168814761Y-111069428D01*
X169005238Y-111069428D01*
X169100476Y-111021809D01*
X169148095Y-110974190D01*
X169195714Y-110878952D01*
X169037023Y-108910380D02*
X168465595Y-108910380D01*
X168751309Y-108910380D02*
X168751309Y-107910380D01*
X168656071Y-108053238D01*
X168560833Y-108148476D01*
X168465595Y-108196095D01*
X169989404Y-108910380D02*
X169417976Y-108910380D01*
X169703690Y-108910380D02*
X169703690Y-107910380D01*
X169608452Y-108053238D01*
X169513214Y-108148476D01*
X169417976Y-108196095D01*
X168973523Y-106497380D02*
X168402095Y-106497380D01*
X168687809Y-106497380D02*
X168687809Y-105497380D01*
X168592571Y-105640238D01*
X168497333Y-105735476D01*
X168402095Y-105783095D01*
X169306857Y-105497380D02*
X169925904Y-105497380D01*
X169592571Y-105878333D01*
X169735428Y-105878333D01*
X169830666Y-105925952D01*
X169878285Y-105973571D01*
X169925904Y-106068809D01*
X169925904Y-106306904D01*
X169878285Y-106402142D01*
X169830666Y-106449761D01*
X169735428Y-106497380D01*
X169449714Y-106497380D01*
X169354476Y-106449761D01*
X169306857Y-106402142D01*
X168449714Y-103608166D02*
X168925904Y-103608166D01*
X168354476Y-103893880D02*
X168687809Y-102893880D01*
X169021142Y-103893880D01*
X169878285Y-103893880D02*
X169306857Y-103893880D01*
X169592571Y-103893880D02*
X169592571Y-102893880D01*
X169497333Y-103036738D01*
X169402095Y-103131976D01*
X169306857Y-103179595D01*
X161131261Y-113609452D02*
X161036023Y-113561833D01*
X160988404Y-113514214D01*
X160940785Y-113418976D01*
X160940785Y-113371357D01*
X160988404Y-113276119D01*
X161036023Y-113228500D01*
X161131261Y-113180880D01*
X161321738Y-113180880D01*
X161416976Y-113228500D01*
X161464595Y-113276119D01*
X161512214Y-113371357D01*
X161512214Y-113418976D01*
X161464595Y-113514214D01*
X161416976Y-113561833D01*
X161321738Y-113609452D01*
X161131261Y-113609452D01*
X161036023Y-113657071D01*
X160988404Y-113704690D01*
X160940785Y-113799928D01*
X160940785Y-113990404D01*
X160988404Y-114085642D01*
X161036023Y-114133261D01*
X161131261Y-114180880D01*
X161321738Y-114180880D01*
X161416976Y-114133261D01*
X161464595Y-114085642D01*
X161512214Y-113990404D01*
X161512214Y-113799928D01*
X161464595Y-113704690D01*
X161416976Y-113657071D01*
X161321738Y-113609452D01*
X159766095Y-111450380D02*
X159766095Y-110783714D01*
X159766095Y-110974190D02*
X159813714Y-110878952D01*
X159861333Y-110831333D01*
X159956571Y-110783714D01*
X160051809Y-110783714D01*
X160337523Y-111402761D02*
X160432761Y-111450380D01*
X160623238Y-111450380D01*
X160718476Y-111402761D01*
X160766095Y-111307523D01*
X160766095Y-111259904D01*
X160718476Y-111164666D01*
X160623238Y-111117047D01*
X160480380Y-111117047D01*
X160385142Y-111069428D01*
X160337523Y-110974190D01*
X160337523Y-110926571D01*
X160385142Y-110831333D01*
X160480380Y-110783714D01*
X160623238Y-110783714D01*
X160718476Y-110831333D01*
X161051809Y-110783714D02*
X161432761Y-110783714D01*
X161194666Y-110450380D02*
X161194666Y-111307523D01*
X161242285Y-111402761D01*
X161337523Y-111450380D01*
X161432761Y-111450380D01*
X160528023Y-108910380D02*
X159956595Y-108910380D01*
X160242309Y-108910380D02*
X160242309Y-107910380D01*
X160147071Y-108053238D01*
X160051833Y-108148476D01*
X159956595Y-108196095D01*
X160908976Y-108005619D02*
X160956595Y-107958000D01*
X161051833Y-107910380D01*
X161289928Y-107910380D01*
X161385166Y-107958000D01*
X161432785Y-108005619D01*
X161480404Y-108100857D01*
X161480404Y-108196095D01*
X161432785Y-108338952D01*
X160861357Y-108910380D01*
X161480404Y-108910380D01*
X160067714Y-106021166D02*
X160543904Y-106021166D01*
X159972476Y-106306880D02*
X160305809Y-105306880D01*
X160639142Y-106306880D01*
X161162952Y-105306880D02*
X161258190Y-105306880D01*
X161353428Y-105354500D01*
X161401047Y-105402119D01*
X161448666Y-105497357D01*
X161496285Y-105687833D01*
X161496285Y-105925928D01*
X161448666Y-106116404D01*
X161401047Y-106211642D01*
X161353428Y-106259261D01*
X161258190Y-106306880D01*
X161162952Y-106306880D01*
X161067714Y-106259261D01*
X161020095Y-106211642D01*
X160972476Y-106116404D01*
X160924857Y-105925928D01*
X160924857Y-105687833D01*
X160972476Y-105497357D01*
X161020095Y-105402119D01*
X161067714Y-105354500D01*
X161162952Y-105306880D01*
X160194714Y-103671666D02*
X160670904Y-103671666D01*
X160099476Y-103957380D02*
X160432809Y-102957380D01*
X160766142Y-103957380D01*
X161051857Y-103052619D02*
X161099476Y-103005000D01*
X161194714Y-102957380D01*
X161432809Y-102957380D01*
X161528047Y-103005000D01*
X161575666Y-103052619D01*
X161623285Y-103147857D01*
X161623285Y-103243095D01*
X161575666Y-103385952D01*
X161004238Y-103957380D01*
X161623285Y-103957380D01*
D14*
X129369820Y-77586840D02*
X129369820Y-75087480D01*
X129369820Y-75087480D02*
X149870160Y-75087480D01*
X149870160Y-75087480D02*
X149870160Y-77586840D01*
X129369820Y-77586840D02*
X149870160Y-77586840D01*
X129369820Y-97083880D02*
X129369820Y-99583240D01*
X129369820Y-99583240D02*
X149870160Y-99583240D01*
X149870160Y-99583240D02*
X149870160Y-97083880D01*
X129369820Y-97083880D02*
X149870160Y-97083880D01*
X177639980Y-88869520D02*
X177639980Y-78374240D01*
X177639980Y-78374240D02*
X183837580Y-78374240D01*
X183837580Y-78374240D02*
X184637680Y-78374240D01*
X184637680Y-78374240D02*
X184637680Y-88869520D01*
X184637680Y-88869520D02*
X183837580Y-88869520D01*
X183837580Y-88869520D02*
X177639980Y-88869520D01*
X183837580Y-78374240D02*
X183837580Y-88869520D01*
D15*
X175657779Y-95643880D02*
X175657780Y-75663880D01*
X175657780Y-75663880D02*
X159657781Y-75663880D01*
X159657781Y-75663880D02*
X159657780Y-95643880D01*
X159657780Y-95643880D02*
X164991114Y-95643880D01*
X164991114Y-95643880D02*
X164991114Y-95283880D01*
X164991114Y-95283880D02*
X170324446Y-95283880D01*
X170324446Y-95283880D02*
X170324446Y-95643880D01*
X170324446Y-95643880D02*
X175657779Y-95643880D01*
X170501000Y-117471500D02*
X175701000Y-117471500D01*
X170501000Y-112331500D02*
X170501000Y-117471500D01*
X175701000Y-109731500D02*
X175701000Y-117471500D01*
X170501000Y-112331500D02*
X173101000Y-112331500D01*
X173101000Y-112331500D02*
X173101000Y-109731500D01*
X173101000Y-109731500D02*
X175701000Y-109731500D01*
X170501000Y-111061500D02*
X170501000Y-109731500D01*
X170501000Y-109731500D02*
X171831000Y-109731500D01*
X164804200Y-86332620D02*
X164804200Y-85132620D01*
X166564200Y-85132620D02*
X166564200Y-86332620D01*
X166958120Y-86330080D02*
X166958120Y-85130080D01*
X168718120Y-85130080D02*
X168718120Y-86330080D01*
X169114580Y-86333900D02*
X169114580Y-85133900D01*
X170874580Y-85133900D02*
X170874580Y-86333900D01*
X167628880Y-117461340D02*
X166298880Y-117461340D01*
X167628880Y-116131340D02*
X167628880Y-117461340D01*
X165028880Y-117461340D02*
X162428880Y-117461340D01*
X165028880Y-114861340D02*
X165028880Y-117461340D01*
X167628880Y-114861340D02*
X165028880Y-114861340D01*
X162428880Y-117461340D02*
X162428880Y-102101340D01*
X167628880Y-114861340D02*
X167628880Y-102101340D01*
X167628880Y-102101340D02*
X162428880Y-102101340D01*
D14*
X177639980Y-106332020D02*
X177639980Y-92336620D01*
X177639980Y-92336620D02*
X183837580Y-92336620D01*
X183837580Y-92336620D02*
X184637680Y-92336620D01*
X184637680Y-92336620D02*
X184637680Y-106332020D01*
X184637680Y-106332020D02*
X183837580Y-106332020D01*
X183837580Y-106332020D02*
X177639980Y-106332020D01*
X183837580Y-92336620D02*
X183837580Y-106332020D01*
D16*
X154095631Y-78953360D02*
X154531060Y-78953360D01*
X154618145Y-78982388D01*
X154676202Y-79040445D01*
X154705231Y-79127531D01*
X154705231Y-79185588D01*
X154705231Y-78663074D02*
X154095631Y-78663074D01*
X154095631Y-78430845D01*
X154124660Y-78372788D01*
X154153688Y-78343760D01*
X154211745Y-78314731D01*
X154298831Y-78314731D01*
X154356888Y-78343760D01*
X154385917Y-78372788D01*
X154414945Y-78430845D01*
X154414945Y-78663074D01*
X154705231Y-77734160D02*
X154705231Y-78082502D01*
X154705231Y-77908331D02*
X154095631Y-77908331D01*
X154182717Y-77966388D01*
X154240774Y-78024445D01*
X154269802Y-78082502D01*
X155365631Y-79504902D02*
X155975231Y-79098502D01*
X155365631Y-79098502D02*
X155975231Y-79504902D01*
X155655917Y-78663074D02*
X155684945Y-78575988D01*
X155713974Y-78546960D01*
X155772031Y-78517931D01*
X155859117Y-78517931D01*
X155917174Y-78546960D01*
X155946202Y-78575988D01*
X155975231Y-78634045D01*
X155975231Y-78866274D01*
X155365631Y-78866274D01*
X155365631Y-78663074D01*
X155394660Y-78605017D01*
X155423688Y-78575988D01*
X155481745Y-78546960D01*
X155539802Y-78546960D01*
X155597860Y-78575988D01*
X155626888Y-78605017D01*
X155655917Y-78663074D01*
X155655917Y-78866274D01*
X155655917Y-78256674D02*
X155655917Y-78053474D01*
X155975231Y-77966388D02*
X155975231Y-78256674D01*
X155365631Y-78256674D01*
X155365631Y-77966388D01*
X155655917Y-77705131D02*
X155655917Y-77501931D01*
X155975231Y-77414845D02*
X155975231Y-77705131D01*
X155365631Y-77705131D01*
X155365631Y-77414845D01*
D17*
X130571119Y-96036674D02*
X130571119Y-96617245D01*
X130571119Y-96326960D02*
X129555119Y-96326960D01*
X129700261Y-96423721D01*
X129797023Y-96520483D01*
X129845404Y-96617245D01*
D16*
X154642457Y-110101742D02*
X154671485Y-110014657D01*
X154700514Y-109985628D01*
X154758571Y-109956600D01*
X154845657Y-109956600D01*
X154903714Y-109985628D01*
X154932742Y-110014657D01*
X154961771Y-110072714D01*
X154961771Y-110304942D01*
X154352171Y-110304942D01*
X154352171Y-110101742D01*
X154381200Y-110043685D01*
X154410228Y-110014657D01*
X154468285Y-109985628D01*
X154526342Y-109985628D01*
X154584400Y-110014657D01*
X154613428Y-110043685D01*
X154642457Y-110101742D01*
X154642457Y-110304942D01*
X154961771Y-109376028D02*
X154961771Y-109724371D01*
X154961771Y-109550200D02*
X154352171Y-109550200D01*
X154439257Y-109608257D01*
X154497314Y-109666314D01*
X154526342Y-109724371D01*
X156295271Y-111930542D02*
X155685671Y-111930542D01*
X155685671Y-111698314D01*
X155714700Y-111640257D01*
X155743728Y-111611228D01*
X155801785Y-111582200D01*
X155888871Y-111582200D01*
X155946928Y-111611228D01*
X155975957Y-111640257D01*
X156004985Y-111698314D01*
X156004985Y-111930542D01*
X156295271Y-111320942D02*
X155888871Y-111320942D01*
X156004985Y-111320942D02*
X155946928Y-111291914D01*
X155917900Y-111262885D01*
X155888871Y-111204828D01*
X155888871Y-111146771D01*
X156295271Y-110856485D02*
X156266242Y-110914542D01*
X156237214Y-110943571D01*
X156179157Y-110972600D01*
X156004985Y-110972600D01*
X155946928Y-110943571D01*
X155917900Y-110914542D01*
X155888871Y-110856485D01*
X155888871Y-110769400D01*
X155917900Y-110711342D01*
X155946928Y-110682314D01*
X156004985Y-110653285D01*
X156179157Y-110653285D01*
X156237214Y-110682314D01*
X156266242Y-110711342D01*
X156295271Y-110769400D01*
X156295271Y-110856485D01*
X156295271Y-109927571D02*
X155685671Y-109927571D01*
X156121100Y-109724371D01*
X155685671Y-109521171D01*
X156295271Y-109521171D01*
X156295271Y-109230885D02*
X155888871Y-109230885D01*
X155685671Y-109230885D02*
X155714700Y-109259914D01*
X155743728Y-109230885D01*
X155714700Y-109201857D01*
X155685671Y-109230885D01*
X155743728Y-109230885D01*
X156266242Y-108679342D02*
X156295271Y-108737400D01*
X156295271Y-108853514D01*
X156266242Y-108911571D01*
X156237214Y-108940600D01*
X156179157Y-108969628D01*
X156004985Y-108969628D01*
X155946928Y-108940600D01*
X155917900Y-108911571D01*
X155888871Y-108853514D01*
X155888871Y-108737400D01*
X155917900Y-108679342D01*
X156295271Y-108418085D02*
X155888871Y-108418085D01*
X156004985Y-108418085D02*
X155946928Y-108389057D01*
X155917900Y-108360028D01*
X155888871Y-108301971D01*
X155888871Y-108243914D01*
X156295271Y-107953628D02*
X156266242Y-108011685D01*
X156237214Y-108040714D01*
X156179157Y-108069742D01*
X156004985Y-108069742D01*
X155946928Y-108040714D01*
X155917900Y-108011685D01*
X155888871Y-107953628D01*
X155888871Y-107866542D01*
X155917900Y-107808485D01*
X155946928Y-107779457D01*
X156004985Y-107750428D01*
X156179157Y-107750428D01*
X156237214Y-107779457D01*
X156266242Y-107808485D01*
X156295271Y-107866542D01*
X156295271Y-107953628D01*
X178083391Y-87967820D02*
X178518820Y-87967820D01*
X178605905Y-87996848D01*
X178663962Y-88054905D01*
X178692991Y-88141991D01*
X178692991Y-88200048D01*
X178692991Y-87358220D02*
X178692991Y-87706562D01*
X178692991Y-87532391D02*
X178083391Y-87532391D01*
X178170477Y-87590448D01*
X178228534Y-87648505D01*
X178257562Y-87706562D01*
X183391991Y-84841805D02*
X182782391Y-84841805D01*
X182782391Y-84609577D01*
X182811420Y-84551520D01*
X182840448Y-84522491D01*
X182898505Y-84493462D01*
X182985591Y-84493462D01*
X183043648Y-84522491D01*
X183072677Y-84551520D01*
X183101705Y-84609577D01*
X183101705Y-84841805D01*
X183391991Y-84145120D02*
X183362962Y-84203177D01*
X183333934Y-84232205D01*
X183275877Y-84261234D01*
X183101705Y-84261234D01*
X183043648Y-84232205D01*
X183014620Y-84203177D01*
X182985591Y-84145120D01*
X182985591Y-84058034D01*
X183014620Y-83999977D01*
X183043648Y-83970948D01*
X183101705Y-83941920D01*
X183275877Y-83941920D01*
X183333934Y-83970948D01*
X183362962Y-83999977D01*
X183391991Y-84058034D01*
X183391991Y-84145120D01*
X182985591Y-83738720D02*
X183391991Y-83622605D01*
X183101705Y-83506491D01*
X183391991Y-83390377D01*
X182985591Y-83274262D01*
X183362962Y-82809805D02*
X183391991Y-82867862D01*
X183391991Y-82983977D01*
X183362962Y-83042034D01*
X183304905Y-83071062D01*
X183072677Y-83071062D01*
X183014620Y-83042034D01*
X182985591Y-82983977D01*
X182985591Y-82867862D01*
X183014620Y-82809805D01*
X183072677Y-82780777D01*
X183130734Y-82780777D01*
X183188791Y-83071062D01*
X183391991Y-82519520D02*
X182985591Y-82519520D01*
X183101705Y-82519520D02*
X183043648Y-82490491D01*
X183014620Y-82461462D01*
X182985591Y-82403405D01*
X182985591Y-82345348D01*
D11*
X163369714Y-94654666D02*
X163845904Y-94654666D01*
X163274476Y-94940380D02*
X163607809Y-93940380D01*
X163941142Y-94940380D01*
X164798285Y-94940380D02*
X164226857Y-94940380D01*
X164512571Y-94940380D02*
X164512571Y-93940380D01*
X164417333Y-94083238D01*
X164322095Y-94178476D01*
X164226857Y-94226095D01*
X166098480Y-89281286D02*
X165622290Y-89614620D01*
X166098480Y-89852715D02*
X165098480Y-89852715D01*
X165098480Y-89471762D01*
X165146100Y-89376524D01*
X165193719Y-89328905D01*
X165288957Y-89281286D01*
X165431814Y-89281286D01*
X165527052Y-89328905D01*
X165574671Y-89376524D01*
X165622290Y-89471762D01*
X165622290Y-89852715D01*
X165098480Y-88947953D02*
X165098480Y-88328905D01*
X165479433Y-88662239D01*
X165479433Y-88519381D01*
X165527052Y-88424143D01*
X165574671Y-88376524D01*
X165669909Y-88328905D01*
X165908004Y-88328905D01*
X166003242Y-88376524D01*
X166050861Y-88424143D01*
X166098480Y-88519381D01*
X166098480Y-88805096D01*
X166050861Y-88900334D01*
X166003242Y-88947953D01*
X168277800Y-89320666D02*
X167801610Y-89654000D01*
X168277800Y-89892095D02*
X167277800Y-89892095D01*
X167277800Y-89511142D01*
X167325420Y-89415904D01*
X167373039Y-89368285D01*
X167468277Y-89320666D01*
X167611134Y-89320666D01*
X167706372Y-89368285D01*
X167753991Y-89415904D01*
X167801610Y-89511142D01*
X167801610Y-89892095D01*
X167373039Y-88939714D02*
X167325420Y-88892095D01*
X167277800Y-88796857D01*
X167277800Y-88558761D01*
X167325420Y-88463523D01*
X167373039Y-88415904D01*
X167468277Y-88368285D01*
X167563515Y-88368285D01*
X167706372Y-88415904D01*
X168277800Y-88987333D01*
X168277800Y-88368285D01*
X170378380Y-89320666D02*
X169902190Y-89654000D01*
X170378380Y-89892095D02*
X169378380Y-89892095D01*
X169378380Y-89511142D01*
X169426000Y-89415904D01*
X169473619Y-89368285D01*
X169568857Y-89320666D01*
X169711714Y-89320666D01*
X169806952Y-89368285D01*
X169854571Y-89415904D01*
X169902190Y-89511142D01*
X169902190Y-89892095D01*
X170378380Y-88368285D02*
X170378380Y-88939714D01*
X170378380Y-88654000D02*
X169378380Y-88654000D01*
X169521238Y-88749238D01*
X169616476Y-88844476D01*
X169664095Y-88939714D01*
D16*
X177974171Y-105740200D02*
X178409600Y-105740200D01*
X178496685Y-105769228D01*
X178554742Y-105827285D01*
X178583771Y-105914371D01*
X178583771Y-105972428D01*
X178177371Y-105188657D02*
X178583771Y-105188657D01*
X177945142Y-105333800D02*
X178380571Y-105478942D01*
X178380571Y-105101571D01*
X183264991Y-102072440D02*
X182655391Y-102072440D01*
X183090820Y-101869240D01*
X182655391Y-101666040D01*
X183264991Y-101666040D01*
X183264991Y-101288668D02*
X183235962Y-101346725D01*
X183206934Y-101375754D01*
X183148877Y-101404782D01*
X182974705Y-101404782D01*
X182916648Y-101375754D01*
X182887620Y-101346725D01*
X182858591Y-101288668D01*
X182858591Y-101201582D01*
X182887620Y-101143525D01*
X182916648Y-101114497D01*
X182974705Y-101085468D01*
X183148877Y-101085468D01*
X183206934Y-101114497D01*
X183235962Y-101143525D01*
X183264991Y-101201582D01*
X183264991Y-101288668D01*
X182858591Y-100911297D02*
X182858591Y-100679068D01*
X182655391Y-100824211D02*
X183177905Y-100824211D01*
X183235962Y-100795182D01*
X183264991Y-100737125D01*
X183264991Y-100679068D01*
X183264991Y-100388782D02*
X183235962Y-100446840D01*
X183206934Y-100475868D01*
X183148877Y-100504897D01*
X182974705Y-100504897D01*
X182916648Y-100475868D01*
X182887620Y-100446840D01*
X182858591Y-100388782D01*
X182858591Y-100301697D01*
X182887620Y-100243640D01*
X182916648Y-100214611D01*
X182974705Y-100185582D01*
X183148877Y-100185582D01*
X183206934Y-100214611D01*
X183235962Y-100243640D01*
X183264991Y-100301697D01*
X183264991Y-100388782D01*
X183264991Y-99924325D02*
X182858591Y-99924325D01*
X182974705Y-99924325D02*
X182916648Y-99895297D01*
X182887620Y-99866268D01*
X182858591Y-99808211D01*
X182858591Y-99750154D01*
X183235962Y-98821240D02*
X183264991Y-98879297D01*
X183264991Y-98995411D01*
X183235962Y-99053468D01*
X183206934Y-99082497D01*
X183148877Y-99111525D01*
X182974705Y-99111525D01*
X182916648Y-99082497D01*
X182887620Y-99053468D01*
X182858591Y-98995411D01*
X182858591Y-98879297D01*
X182887620Y-98821240D01*
X183264991Y-98472897D02*
X183235962Y-98530954D01*
X183206934Y-98559982D01*
X183148877Y-98589011D01*
X182974705Y-98589011D01*
X182916648Y-98559982D01*
X182887620Y-98530954D01*
X182858591Y-98472897D01*
X182858591Y-98385811D01*
X182887620Y-98327754D01*
X182916648Y-98298725D01*
X182974705Y-98269697D01*
X183148877Y-98269697D01*
X183206934Y-98298725D01*
X183235962Y-98327754D01*
X183264991Y-98385811D01*
X183264991Y-98472897D01*
X183264991Y-98008440D02*
X182858591Y-98008440D01*
X182655391Y-98008440D02*
X182684420Y-98037468D01*
X182713448Y-98008440D01*
X182684420Y-97979411D01*
X182655391Y-98008440D01*
X182713448Y-98008440D01*
X183264991Y-97631068D02*
X183235962Y-97689125D01*
X183177905Y-97718154D01*
X182655391Y-97718154D01*
X183235962Y-97427868D02*
X183264991Y-97369811D01*
X183264991Y-97253697D01*
X183235962Y-97195640D01*
X183177905Y-97166611D01*
X183148877Y-97166611D01*
X183090820Y-97195640D01*
X183061791Y-97253697D01*
X183061791Y-97340782D01*
X183032762Y-97398840D01*
X182974705Y-97427868D01*
X182945677Y-97427868D01*
X182887620Y-97398840D01*
X182858591Y-97340782D01*
X182858591Y-97253697D01*
X182887620Y-97195640D01*
M02*
