M48
; DRILL file {KiCad (5.1.2)-1} date 30/05/2019 12:41:01
; FORMAT={-:-/ absolute / metric / decimal}
; #@! TF.CreationDate,2019-05-30T12:41:01+02:00
; #@! TF.GenerationSoftware,Kicad,Pcbnew,(5.1.2)-1
; #@! TF.FileFunction,Plated,1,2,PTH
FMAT,2
METRIC
T1C0.400
T2C0.798
T3C0.800
T4C1.000
T5C1.016
T6C1.199
T7C3.200
%
G90
G05
T1
X128.143Y-96.312
X130.619Y-117.518
X148.664Y-113.602
X151.267Y-113.797
X153.556Y-113.843
X157.433Y-90.891
X158.133Y-102.05
X158.166Y-105.479
X159.423Y-102.08
X159.423Y-105.529
X161.008Y-102.171
X161.008Y-105.618
X163.258Y-78.041
X163.863Y-81.844
X163.965Y-89.87
X167.758Y-92.011
X167.831Y-89.154
X169.862Y-79.654
X169.862Y-81.28
X169.921Y-90.805
T2
X130.619Y-76.337
X130.619Y-98.334
X132.621Y-76.337
X132.621Y-98.334
X134.62Y-76.337
X134.62Y-98.334
X136.622Y-76.337
X136.622Y-98.334
X138.62Y-76.337
X138.62Y-98.334
X140.619Y-76.337
X140.619Y-98.334
X142.621Y-76.337
X142.621Y-98.334
X144.62Y-76.337
X144.62Y-98.334
X146.621Y-76.337
X146.621Y-98.334
X148.62Y-76.337
X148.62Y-98.334
T3
X161.158Y-76.764
X161.158Y-79.304
X161.158Y-81.844
X161.158Y-84.384
X161.158Y-86.924
X161.158Y-89.464
X161.158Y-92.004
X161.158Y-94.544
X174.158Y-76.764
X174.158Y-79.304
X174.158Y-81.844
X174.158Y-84.384
X174.158Y-86.924
X174.158Y-89.464
X174.158Y-92.004
X174.158Y-94.544
T4
X171.831Y-111.061
X171.831Y-113.602
X171.831Y-116.141
X174.371Y-111.061
X174.371Y-113.602
X174.371Y-116.141
X163.759Y-103.431
X163.759Y-105.971
X163.759Y-108.511
X163.759Y-111.051
X163.759Y-113.591
X163.759Y-116.131
X166.299Y-103.431
X166.299Y-105.971
X166.299Y-108.511
X166.299Y-111.051
X166.299Y-113.591
X166.299Y-116.131
T5
X128.079Y-102.278
X128.079Y-117.518
X130.619Y-102.278
X130.619Y-117.518
X133.159Y-102.278
X133.159Y-117.518
X135.7Y-102.278
X135.7Y-117.518
X138.239Y-102.278
X138.239Y-117.518
X140.779Y-102.278
X140.779Y-117.518
X143.32Y-102.278
X143.32Y-117.518
X145.859Y-102.278
X145.859Y-117.518
X148.399Y-102.278
X148.399Y-117.518
X150.939Y-102.278
X150.939Y-117.518
X153.48Y-102.278
X153.48Y-117.518
X156.019Y-102.278
X156.019Y-117.518
T6
X181.038Y-80.124
X181.038Y-83.624
X181.038Y-87.122
X181.038Y-94.087
X181.038Y-97.587
X181.038Y-101.087
X181.038Y-104.584
T7
X130.238Y-82.296
X181.038Y-114.554
T0
M30
