G04 Layer: BottomSilkLayer*
G04 EasyEDA v6.1.49, Fri, 31 May 2019 17:24:00 GMT*
G04 71df6b768b89431483a7d7af08236151,dc0d9e76242740cdbd9464dc56747404,10*
G04 Gerber Generator version 0.2*
G04 Scale: 100 percent, Rotated: No, Reflected: No *
G04 Dimensions in millimeters *
G04 leading zeros omitted , absolute positions ,3 integer and 3 decimal *
%FSLAX33Y33*%
%MOMM*%
G90*
G71D02*

%ADD29C,0.203200*%

%LPD*%
G54D29*
G01X91480Y8154D02*
G01X91571Y8063D01*
G01X91616Y7927D01*
G01X91616Y7745D01*
G01X91571Y7609D01*
G01X91480Y7518D01*
G01X91389Y7518D01*
G01X91298Y7563D01*
G01X91252Y7609D01*
G01X91207Y7700D01*
G01X91116Y7972D01*
G01X91071Y8063D01*
G01X91025Y8109D01*
G01X90934Y8154D01*
G01X90798Y8154D01*
G01X90707Y8063D01*
G01X90661Y7927D01*
G01X90661Y7745D01*
G01X90707Y7609D01*
G01X90798Y7518D01*
G01X91616Y8590D02*
G01X90843Y8590D01*
G01X90707Y8636D01*
G01X90661Y8727D01*
G01X90661Y8818D01*
G01X91298Y8454D02*
G01X91298Y8772D01*
G01X91025Y9118D02*
G01X91025Y9663D01*
G01X91116Y9663D01*
G01X91207Y9618D01*
G01X91252Y9572D01*
G01X91298Y9481D01*
G01X91298Y9345D01*
G01X91252Y9254D01*
G01X91161Y9163D01*
G01X91025Y9118D01*
G01X90934Y9118D01*
G01X90798Y9163D01*
G01X90707Y9254D01*
G01X90661Y9345D01*
G01X90661Y9481D01*
G01X90707Y9572D01*
G01X90798Y9663D01*
G01X91298Y9963D02*
G01X90343Y9963D01*
G01X91161Y9963D02*
G01X91252Y10054D01*
G01X91298Y10145D01*
G01X91298Y10281D01*
G01X91252Y10372D01*
G01X91161Y10463D01*
G01X91025Y10509D01*
G01X90934Y10509D01*
G01X90798Y10463D01*
G01X90707Y10372D01*
G01X90661Y10281D01*
G01X90661Y10145D01*
G01X90707Y10054D01*
G01X90798Y9963D01*
G01X91298Y10809D02*
G01X90343Y10809D01*
G01X91161Y10809D02*
G01X91252Y10900D01*
G01X91298Y10990D01*
G01X91298Y11127D01*
G01X91252Y11218D01*
G01X91161Y11309D01*
G01X91025Y11354D01*
G01X90934Y11354D01*
G01X90798Y11309D01*
G01X90707Y11218D01*
G01X90661Y11127D01*
G01X90661Y10990D01*
G01X90707Y10900D01*
G01X90798Y10809D01*
G01X91025Y11654D02*
G01X91025Y12200D01*
G01X91116Y12200D01*
G01X91207Y12154D01*
G01X91252Y12109D01*
G01X91298Y12018D01*
G01X91298Y11881D01*
G01X91252Y11790D01*
G01X91161Y11700D01*
G01X91025Y11654D01*
G01X90934Y11654D01*
G01X90798Y11700D01*
G01X90707Y11790D01*
G01X90661Y11881D01*
G01X90661Y12018D01*
G01X90707Y12109D01*
G01X90798Y12200D01*
G01X91298Y12500D02*
G01X90661Y12500D01*
G01X91025Y12500D02*
G01X91161Y12545D01*
G01X91252Y12636D01*
G01X91298Y12727D01*
G01X91298Y12863D01*
G01X91616Y13863D02*
G01X90661Y13863D01*
G01X91616Y13863D02*
G01X90661Y14227D01*
G01X91616Y14590D02*
G01X90661Y14227D01*
G01X91616Y14590D02*
G01X90661Y14590D01*
G01X91298Y15118D02*
G01X91252Y15027D01*
G01X91161Y14936D01*
G01X91025Y14890D01*
G01X90934Y14890D01*
G01X90798Y14936D01*
G01X90707Y15027D01*
G01X90661Y15118D01*
G01X90661Y15254D01*
G01X90707Y15345D01*
G01X90798Y15436D01*
G01X90934Y15481D01*
G01X91025Y15481D01*
G01X91161Y15436D01*
G01X91252Y15345D01*
G01X91298Y15254D01*
G01X91298Y15118D01*
G01X91616Y15918D02*
G01X90843Y15918D01*
G01X90707Y15963D01*
G01X90661Y16054D01*
G01X90661Y16145D01*
G01X91298Y15781D02*
G01X91298Y16100D01*
G01X91298Y16672D02*
G01X91252Y16581D01*
G01X91161Y16490D01*
G01X91025Y16445D01*
G01X90934Y16445D01*
G01X90798Y16490D01*
G01X90707Y16581D01*
G01X90661Y16672D01*
G01X90661Y16809D01*
G01X90707Y16900D01*
G01X90798Y16990D01*
G01X90934Y17036D01*
G01X91025Y17036D01*
G01X91161Y16990D01*
G01X91252Y16900D01*
G01X91298Y16809D01*
G01X91298Y16672D01*
G01X91298Y17336D02*
G01X90661Y17336D01*
G01X91025Y17336D02*
G01X91161Y17381D01*
G01X91252Y17472D01*
G01X91298Y17563D01*
G01X91298Y17700D01*
G01X91389Y19381D02*
G01X91480Y19336D01*
G01X91571Y19245D01*
G01X91616Y19154D01*
G01X91616Y18972D01*
G01X91571Y18881D01*
G01X91480Y18790D01*
G01X91389Y18745D01*
G01X91252Y18700D01*
G01X91025Y18700D01*
G01X90889Y18745D01*
G01X90798Y18790D01*
G01X90707Y18881D01*
G01X90661Y18972D01*
G01X90661Y19154D01*
G01X90707Y19245D01*
G01X90798Y19336D01*
G01X90889Y19381D01*
G01X91298Y19909D02*
G01X91252Y19818D01*
G01X91161Y19727D01*
G01X91025Y19681D01*
G01X90934Y19681D01*
G01X90798Y19727D01*
G01X90707Y19818D01*
G01X90661Y19909D01*
G01X90661Y20045D01*
G01X90707Y20136D01*
G01X90798Y20227D01*
G01X90934Y20272D01*
G01X91025Y20272D01*
G01X91161Y20227D01*
G01X91252Y20136D01*
G01X91298Y20045D01*
G01X91298Y19909D01*
G01X91298Y20572D02*
G01X90661Y20572D01*
G01X91116Y20572D02*
G01X91252Y20709D01*
G01X91298Y20800D01*
G01X91298Y20936D01*
G01X91252Y21027D01*
G01X91116Y21072D01*
G01X90661Y21072D01*
G01X91616Y21509D02*
G01X90843Y21509D01*
G01X90707Y21554D01*
G01X90661Y21645D01*
G01X90661Y21736D01*
G01X91298Y21372D02*
G01X91298Y21690D01*
G01X91298Y22036D02*
G01X90661Y22036D01*
G01X91025Y22036D02*
G01X91161Y22081D01*
G01X91252Y22172D01*
G01X91298Y22263D01*
G01X91298Y22400D01*
G01X91298Y22927D02*
G01X91252Y22836D01*
G01X91161Y22745D01*
G01X91025Y22700D01*
G01X90934Y22700D01*
G01X90798Y22745D01*
G01X90707Y22836D01*
G01X90661Y22927D01*
G01X90661Y23063D01*
G01X90707Y23154D01*
G01X90798Y23245D01*
G01X90934Y23290D01*
G01X91025Y23290D01*
G01X91161Y23245D01*
G01X91252Y23154D01*
G01X91298Y23063D01*
G01X91298Y22927D01*
G01X91616Y23590D02*
G01X90661Y23590D01*
G01X91616Y23890D02*
G01X90661Y23890D01*
G01X91025Y24190D02*
G01X91025Y24736D01*
G01X91116Y24736D01*
G01X91207Y24690D01*
G01X91252Y24645D01*
G01X91298Y24554D01*
G01X91298Y24418D01*
G01X91252Y24327D01*
G01X91161Y24236D01*
G01X91025Y24190D01*
G01X90934Y24190D01*
G01X90798Y24236D01*
G01X90707Y24327D01*
G01X90661Y24418D01*
G01X90661Y24554D01*
G01X90707Y24645D01*
G01X90798Y24736D01*
G01X91298Y25036D02*
G01X90661Y25036D01*
G01X91025Y25036D02*
G01X91161Y25081D01*
G01X91252Y25172D01*
G01X91298Y25263D01*
G01X91298Y25400D01*
G01X89600Y7518D02*
G01X88645Y7518D01*
G01X89600Y7518D02*
G01X89600Y7927D01*
G01X89555Y8063D01*
G01X89509Y8109D01*
G01X89418Y8154D01*
G01X89327Y8154D01*
G01X89236Y8109D01*
G01X89191Y8063D01*
G01X89145Y7927D01*
G01X89145Y7518D01*
G01X89145Y7836D02*
G01X88645Y8154D01*
G01X89009Y8454D02*
G01X89009Y9000D01*
G01X89100Y9000D01*
G01X89191Y8954D01*
G01X89236Y8909D01*
G01X89282Y8818D01*
G01X89282Y8681D01*
G01X89236Y8590D01*
G01X89145Y8500D01*
G01X89009Y8454D01*
G01X88918Y8454D01*
G01X88782Y8500D01*
G01X88691Y8590D01*
G01X88645Y8681D01*
G01X88645Y8818D01*
G01X88691Y8909D01*
G01X88782Y9000D01*
G01X89282Y9300D02*
G01X88645Y9572D01*
G01X89282Y9845D02*
G01X88645Y9572D01*
G01X89600Y10145D02*
G01X88645Y10145D01*
G01X89600Y10145D02*
G01X89600Y10554D01*
G01X89555Y10690D01*
G01X89509Y10736D01*
G01X89418Y10781D01*
G01X89327Y10781D01*
G01X89236Y10736D01*
G01X89191Y10690D01*
G01X89145Y10554D01*
G01X89145Y10145D02*
G01X89145Y10554D01*
G01X89100Y10690D01*
G01X89055Y10736D01*
G01X88964Y10781D01*
G01X88827Y10781D01*
G01X88736Y10736D01*
G01X88691Y10690D01*
G01X88645Y10554D01*
G01X88645Y10145D01*
G01X89600Y11781D02*
G01X88645Y11781D01*
G01X89600Y11781D02*
G01X88645Y12418D01*
G01X89600Y12418D02*
G01X88645Y12418D01*
G01X89282Y12945D02*
G01X89236Y12854D01*
G01X89145Y12763D01*
G01X89009Y12718D01*
G01X88918Y12718D01*
G01X88782Y12763D01*
G01X88691Y12854D01*
G01X88645Y12945D01*
G01X88645Y13081D01*
G01X88691Y13172D01*
G01X88782Y13263D01*
G01X88918Y13309D01*
G01X89009Y13309D01*
G01X89145Y13263D01*
G01X89236Y13172D01*
G01X89282Y13081D01*
G01X89282Y12945D01*
G01X89282Y13609D02*
G01X88645Y13881D01*
G01X89282Y14154D02*
G01X88645Y13881D01*
G01X89373Y15200D02*
G01X89418Y15200D01*
G01X89509Y15245D01*
G01X89555Y15290D01*
G01X89600Y15381D01*
G01X89600Y15563D01*
G01X89555Y15654D01*
G01X89509Y15700D01*
G01X89418Y15745D01*
G01X89327Y15745D01*
G01X89236Y15700D01*
G01X89100Y15609D01*
G01X88645Y15154D01*
G01X88645Y15790D01*
G01X89600Y16363D02*
G01X89555Y16227D01*
G01X89418Y16136D01*
G01X89191Y16090D01*
G01X89055Y16090D01*
G01X88827Y16136D01*
G01X88691Y16227D01*
G01X88645Y16363D01*
G01X88645Y16454D01*
G01X88691Y16590D01*
G01X88827Y16681D01*
G01X89055Y16727D01*
G01X89191Y16727D01*
G01X89418Y16681D01*
G01X89555Y16590D01*
G01X89600Y16454D01*
G01X89600Y16363D01*
G01X89418Y17027D02*
G01X89464Y17118D01*
G01X89600Y17254D01*
G01X88645Y17254D01*
G01X89600Y18190D02*
G01X88645Y17736D01*
G01X89600Y17554D02*
G01X89600Y18190D01*
G01X89600Y19645D02*
G01X88873Y19645D01*
G01X88736Y19600D01*
G01X88691Y19554D01*
G01X88645Y19463D01*
G01X88645Y19372D01*
G01X88691Y19281D01*
G01X88736Y19236D01*
G01X88873Y19190D01*
G01X88964Y19190D01*
G01X89600Y20309D02*
G01X88645Y19945D01*
G01X89600Y20309D02*
G01X88645Y20672D01*
G01X88964Y20081D02*
G01X88964Y20536D01*
G01X89600Y20972D02*
G01X88645Y20972D01*
G01X89600Y20972D02*
G01X89600Y21563D01*
G01X89145Y20972D02*
G01X89145Y21336D01*
G01X88645Y20972D02*
G01X88645Y21563D01*
G01X89600Y21863D02*
G01X88645Y21863D01*
M00*
M02*
