;Layer: Drill PTH
;EasyEDA v6.1.49, Fri, 31 May 2019 17:24:00 GMT
;71df6b768b89431483a7d7af08236151,dc0d9e76242740cdbd9464dc56747404,10
;Gerber Generator version 0.2
M48
METRIC,LZ,000.000
;Holesize 1 = 0.305 METRIC
T01C0.305
;Holesize 2 = 0.762 METRIC
T02C0.762
;Holesize 3 = 0.798 METRIC
T03C0.798
;Holesize 4 = 0.813 METRIC
T04C0.813
;Holesize 5 = 0.900 METRIC
T05C0.900
;Holesize 6 = 0.901 METRIC
T06C0.901
;Holesize 7 = 0.915 METRIC
T07C0.915
;Holesize 8 = 1.001 METRIC
T08C1.001
;Holesize 9 = 1.016 METRIC
T09C1.016
;Holesize 10 = 1.169 METRIC
T10C1.169
;Holesize 11 = 1.728 METRIC
T11C1.728
;Holesize 12 = 2.500 METRIC
T12C2.500
%
G05
G90
T01
X+022606Y+041910
X+022606Y+040386
X+041910Y+049530
X+043942Y+053086
X+042418Y+054102
X+018034Y+052324
X+085090Y+035814
X+044450Y+040132
X+034290Y+040132
X+060960Y+046990
X+087630Y+035814
X+063500Y+046990
X+031242Y+040132
X+025146Y+041910
X+066040Y+036576
T02
X+064643Y+026670
X+064643Y+029210
X+064643Y+031750
X+064643Y+024130
X+064643Y+021590
X+064643Y+019050
X+064643Y+016510
X+064643Y+013970
X+051943Y+013970
X+051943Y+016510
X+051943Y+019050
X+051943Y+021590
X+051943Y+024130
X+051943Y+026670
X+051943Y+029210
X+051943Y+031750
T03
X+003810Y+026670
X+003810Y+029210
X+003810Y+031750
X+078994Y+030988
X+076454Y+030988
X+085090Y+025654
X+087630Y+025654
X+037846Y+015748
X+037846Y+013208
X+012700Y+018796
X+012700Y+016256
X+085090Y+030988
X+087630Y+030988
X+090170Y+030988
X+025654Y+019050
X+025654Y+016510
X+076454Y+025654
X+078994Y+025654
T04
X+029464Y+026416
X+029464Y+023876
X+029464Y+021336
X+037084Y+021336
X+037084Y+023876
X+037084Y+026416
T05
X+061976Y+063754
X+054356Y+063754
X+040386Y+013462
X+048006Y+013462
X+040386Y+016764
X+048006Y+016764
X+009652Y+020320
X+002032Y+020320
X+002032Y+015240
X+009652Y+015240
X+037084Y+031242
X+029464Y+031242
X+041148Y+023876
X+041148Y+031496
X+028194Y+017018
X+035814Y+017018
X+022860Y+020320
X+015240Y+020320
X+022860Y+015240
X+015240Y+015240
T06
X+013208Y+030226
X+015709Y+027726
X+010708Y+027726
T07
X+076708Y+009652
X+074168Y+010922
X+076708Y+012192
X+074168Y+013462
X+076708Y+014732
X+074168Y+016002
X+076708Y+017272
X+074168Y+018542
T08
X+017653Y+004414
X+017653Y+010414
X+013652Y+004414
X+013652Y+010414
X+035941Y+004668
X+035941Y+010668
X+031940Y+004668
X+031940Y+010668
X+024257Y+026258
X+024257Y+032258
X+020256Y+026258
X+020256Y+032258
X+029723Y+068585
X+032263Y+068585
X+037343Y+068585
X+034803Y+068585
X+044963Y+068585
X+047503Y+068585
X+042423Y+068585
X+039883Y+068585
X+019563Y+068585
X+022103Y+068585
X+027183Y+068585
X+024643Y+068585
X+014483Y+068585
X+017023Y+068585
X+011943Y+068585
X+009403Y+068585
T09
X+056134Y+006858
X+058674Y+006858
X+061214Y+006858
X+042926Y+059944
X+040386Y+059944
X+037846Y+059944
X+035306Y+059944
X+032766Y+059944
X+030226Y+059944
X+027686Y+059944
X+025146Y+059944
X+022606Y+059944
X+020066Y+059944
X+017526Y+059944
X+014986Y+059944
X+014986Y+044704
X+017526Y+044704
X+020066Y+044704
X+022606Y+044704
X+025146Y+044704
X+027686Y+044704
X+030226Y+044704
X+032766Y+044704
X+035306Y+044704
X+037846Y+044704
X+040386Y+044704
X+042926Y+044704
T10
X+089662Y+048717
X+089662Y+043738
X+089662Y+062941
X+089662Y+057962
T11
X+080213Y+006350
X+080213Y+021844
T12
X+003901Y+068585
X+003901Y+037586
X+078902Y+037586
X+078902Y+068585
M30
