G04 Layer: BottomSolderMaskLayer*
G04 EasyEDA v6.1.49, Fri, 31 May 2019 17:24:00 GMT*
G04 71df6b768b89431483a7d7af08236151,dc0d9e76242740cdbd9464dc56747404,10*
G04 Gerber Generator version 0.2*
G04 Scale: 100 percent, Rotated: No, Reflected: No *
G04 Dimensions in millimeters *
G04 leading zeros omitted , absolute positions ,3 integer and 3 decimal *
%FSLAX33Y33*%
%MOMM*%
G90*
G71D02*

%ADD30R,1.402080X1.402080*%
%ADD31C,1.402080*%
%ADD32C,1.727200*%
%ADD33R,2.235200X2.235200*%
%ADD34C,2.235200*%
%ADD35C,2.082800*%
%ADD36R,2.202180X3.703320*%
%ADD37C,3.202940*%
%ADD39C,2.692400*%

%LPD*%
G36*
G01X3108Y25968D02*
G01X3108Y27371D01*
G01X4511Y27371D01*
G01X4511Y25968D01*
G01X3108Y25968D01*
G37*
G54D31*
G01X3810Y29210D03*
G01X3810Y31750D03*
G36*
G01X78292Y30286D02*
G01X78292Y31689D01*
G01X79695Y31689D01*
G01X79695Y30286D01*
G01X78292Y30286D01*
G37*
G01X76454Y30988D03*
G54D30*
G01X85090Y25654D03*
G54D31*
G01X87630Y25654D03*
G54D32*
G01X17653Y4414D03*
G01X17653Y10414D03*
G01X13652Y4414D03*
G01X13652Y10414D03*
G01X35941Y4668D03*
G01X35941Y10668D03*
G01X31940Y4668D03*
G01X31940Y10668D03*
G01X24257Y26258D03*
G01X24257Y32258D03*
G01X20256Y26258D03*
G01X20256Y32258D03*
G54D33*
G01X89662Y48717D03*
G54D34*
G01X89662Y43738D03*
G54D35*
G01X56134Y6858D03*
G01X58674Y6858D03*
G01X61214Y6858D03*
G54D33*
G01X89662Y62941D03*
G54D34*
G01X89662Y57962D03*
G54D36*
G01X29723Y68585D03*
G01X32263Y68585D03*
G01X37343Y68585D03*
G01X34803Y68585D03*
G01X44963Y68585D03*
G01X47503Y68585D03*
G01X42423Y68585D03*
G01X39883Y68585D03*
G01X19563Y68585D03*
G01X22103Y68585D03*
G01X27183Y68585D03*
G01X24643Y68585D03*
G01X14483Y68585D03*
G01X17023Y68585D03*
G01X11943Y68585D03*
G54D37*
G01X3901Y68585D03*
G01X3901Y37586D03*
G01X78902Y37586D03*
G01X78902Y68585D03*
G54D36*
G01X9403Y68585D03*
G54D35*
G01X42926Y59944D03*
G01X40386Y59944D03*
G01X37846Y59944D03*
G01X35306Y59944D03*
G01X32766Y59944D03*
G01X30226Y59944D03*
G01X27686Y59944D03*
G01X25146Y59944D03*
G01X22606Y59944D03*
G01X20066Y59944D03*
G01X17526Y59944D03*
G01X14986Y59944D03*
G01X14986Y44704D03*
G01X17526Y44704D03*
G01X20066Y44704D03*
G01X22606Y44704D03*
G01X25146Y44704D03*
G01X27686Y44704D03*
G01X30226Y44704D03*
G01X32766Y44704D03*
G01X35306Y44704D03*
G01X37846Y44704D03*
G01X40386Y44704D03*
G01X42926Y44704D03*
G54D32*
G01X64643Y26670D03*
G01X64643Y29210D03*
G01X64643Y31750D03*
G01X64643Y24130D03*
G01X64643Y21590D03*
G01X64643Y19050D03*
G01X64643Y16510D03*
G01X64643Y13970D03*
G01X51943Y13970D03*
G01X51943Y16510D03*
G01X51943Y19050D03*
G01X51943Y21590D03*
G01X51943Y24130D03*
G01X51943Y26670D03*
G01X51943Y29210D03*
G01X51943Y31750D03*
G36*
G01X75857Y8902D02*
G01X75857Y10401D01*
G01X77558Y10401D01*
G01X77558Y8902D01*
G01X75857Y8902D01*
G37*
G36*
G01X73317Y10172D02*
G01X73317Y11671D01*
G01X75018Y11671D01*
G01X75018Y10172D01*
G01X73317Y10172D01*
G37*
G36*
G01X75857Y11442D02*
G01X75857Y12941D01*
G01X77558Y12941D01*
G01X77558Y11442D01*
G01X75857Y11442D01*
G37*
G36*
G01X73317Y12712D02*
G01X73317Y14211D01*
G01X75018Y14211D01*
G01X75018Y12712D01*
G01X73317Y12712D01*
G37*
G36*
G01X75857Y13982D02*
G01X75857Y15481D01*
G01X77558Y15481D01*
G01X77558Y13982D01*
G01X75857Y13982D01*
G37*
G36*
G01X73317Y15252D02*
G01X73317Y16751D01*
G01X75018Y16751D01*
G01X75018Y15252D01*
G01X73317Y15252D01*
G37*
G36*
G01X75857Y16522D02*
G01X75857Y18021D01*
G01X77558Y18021D01*
G01X77558Y16522D01*
G01X75857Y16522D01*
G37*
G36*
G01X73317Y17792D02*
G01X73317Y19291D01*
G01X75018Y19291D01*
G01X75018Y17792D01*
G01X73317Y17792D01*
G37*
G54D39*
G01X80213Y6350D03*
G01X80213Y21844D03*
G54D31*
G01X37846Y15748D03*
G01X37846Y13208D03*
G01X12700Y18796D03*
G01X12700Y16256D03*
G54D35*
G01X61976Y63754D03*
G01X54356Y63754D03*
G01X40386Y13462D03*
G01X48006Y13462D03*
G54D30*
G01X85090Y30988D03*
G54D31*
G01X87630Y30988D03*
G01X90170Y30988D03*
G01X25654Y19050D03*
G01X25654Y16510D03*
G54D35*
G01X40386Y16764D03*
G01X48006Y16764D03*
G54D30*
G01X76454Y25654D03*
G54D31*
G01X78994Y25654D03*
G36*
G01X28219Y25527D02*
G01X28219Y27305D01*
G01X30708Y27305D01*
G01X30708Y25527D01*
G01X28219Y25527D01*
G37*
G36*
G01X28219Y22987D02*
G01X28219Y24765D01*
G01X30708Y24765D01*
G01X30708Y22987D01*
G01X28219Y22987D01*
G37*
G36*
G01X28219Y20447D02*
G01X28219Y22225D01*
G01X30708Y22225D01*
G01X30708Y20447D01*
G01X28219Y20447D01*
G37*
G36*
G01X35839Y20447D02*
G01X35839Y22225D01*
G01X38328Y22225D01*
G01X38328Y20447D01*
G01X35839Y20447D01*
G37*
G36*
G01X35839Y22987D02*
G01X35839Y24765D01*
G01X38328Y24765D01*
G01X38328Y22987D01*
G01X35839Y22987D01*
G37*
G36*
G01X35839Y25527D02*
G01X35839Y27305D01*
G01X38328Y27305D01*
G01X38328Y25527D01*
G01X35839Y25527D01*
G37*
G54D32*
G01X13208Y30226D03*
G01X15709Y27726D03*
G01X10708Y27726D03*
G54D35*
G01X9652Y20320D03*
G01X2032Y20320D03*
G01X2032Y15240D03*
G01X9652Y15240D03*
G01X37084Y31242D03*
G01X29464Y31242D03*
G01X41148Y23876D03*
G01X41148Y31496D03*
G01X28194Y17018D03*
G01X35814Y17018D03*
G01X22860Y20320D03*
G01X15240Y20320D03*
G01X22860Y15240D03*
G01X15240Y15240D03*
M00*
M02*
